<?xml version="1.0" encoding="utf-8"?>
<!-- Generator: Adobe Illustrator 24.1.2, SVG Export Plug-In . SVG Version: 6.00 Build 0)  -->
<!DOCTYPE svg PUBLIC "-//W3C//DTD SVG 1.1//EN" "http://www.w3.org/Graphics/SVG/1.1/DTD/svg11.dtd" [
	<!ENTITY ns_extend "http://ns.adobe.com/Extensibility/1.0/">
	<!ENTITY ns_ai "http://ns.adobe.com/AdobeIllustrator/10.0/">
	<!ENTITY ns_graphs "http://ns.adobe.com/Graphs/1.0/">
	<!ENTITY ns_vars "http://ns.adobe.com/Variables/1.0/">
	<!ENTITY ns_imrep "http://ns.adobe.com/ImageReplacement/1.0/">
	<!ENTITY ns_sfw "http://ns.adobe.com/SaveForWeb/1.0/">
	<!ENTITY ns_custom "http://ns.adobe.com/GenericCustomNamespace/1.0/">
	<!ENTITY ns_adobe_xpath "http://ns.adobe.com/XPath/1.0/">
]>
<svg version="1.1" id="Layer_1" xmlns:x="&ns_extend;" xmlns:i="&ns_ai;" xmlns:graph="&ns_graphs;"
	 xmlns="http://www.w3.org/2000/svg" xmlns:xlink="http://www.w3.org/1999/xlink" x="0px" y="0px" width="350px" height="600px"
	 viewBox="0 0 350 600" style="enable-background:new 0 0 350 600;" xml:space="preserve">
<style type="text/css">
	.st0{fill:#E9D58E;}
	.st1{fill:#191917;}
	.st2{fill:#141313;}
	.st3{fill:#FDF5E8;}
	.st4{fill:#100F0E;}
	.st5{fill:#3E3D3A;}
	.st6{fill:#131313;}
	.st7{fill:#151311;}
	.st8{fill:#FDF2CB;}
	.st9{fill:#292826;}
	.st10{fill:#DAC09D;}
	.st11{fill:#1C1A18;}
	.st12{fill:#FCF4E7;}
	.st13{fill:#2E2A26;}
	.st14{fill:#978778;}
	.st15{fill:#3C3C3B;}
	.st16{fill:#4C4736;}
	.st17{fill:#908172;}
	.st18{fill:#32302D;}
	.st19{fill:#292726;}
	.st20{fill:#1B1816;}
	.st21{fill:#2F2D2B;}
	.st22{fill:#2F2C2A;}
	.st23{fill:#5A5956;}
	.st24{fill:#3C392D;}
	.st25{fill:#191715;}
	.st26{fill:#2C2723;}
	.st27{fill:#3F3A36;}
	.st28{fill:#282623;}
	.st29{fill:#3A3732;}
	.st30{fill:#363227;}
	.st31{fill:#4B4743;}
	.st32{fill:#21201E;}
	.st33{fill:#1C1B1B;}
	.st34{fill:#433E3A;}
	.st35{fill:#46413D;}
	.st36{fill:#4B463F;}
	.st37{fill:#7B7874;}
	.st38{fill:#1E1D1C;}
	.st39{fill:#61594E;}
	.st40{fill:#363432;}
	.st41{fill:#615D51;}
	.st42{fill:#4B4540;}
	.st43{fill:#413E39;}
	.st44{fill:#2A2825;}
	.st45{fill:#22211B;}
	.st46{fill:#322D29;}
	.st47{fill:#494949;}
	.st48{fill:#545352;}
	.st49{fill:#3D3C3B;}
	.st50{fill:#4D4D4D;}
	.st51{fill:#6D6860;}
	.st52{fill:#636363;}
	.st53{fill:#0F0E0B;}
	.st54{fill:#717171;}
	.st55{fill:#423D2C;}
	.st56{fill:#C1AA8C;}
	.st57{fill:#FEF3CC;}
	.st58{fill:#D5BC9C;}
	.st59{fill:#EDDCA3;}
	.st60{fill:#E7D390;}
	.st61{fill:#4E4E4E;}
	.st62{fill:#FDF6E9;}
	.st63{fill:#DEC5A4;}
	.st64{fill:#74C8DF;}
	.st65{fill:#90E4D5;}
	.st66{fill:#E9DFB2;}
	.st67{fill:#FDB960;}
	.st68{fill:#FEEB9F;}
	.st69{fill:#FE8282;}
	.st70{fill:#F7CECF;}
	.st71{fill:#A8D689;}
	.st72{fill:#FE9065;}
	.st73{fill:#D7AADB;}
	.st74{fill:#E7D38D;}
	.st75{fill:#BF8BC9;}
	.st76{fill:#BA87C3;}
	.st77{fill:#68645F;}
	.st78{fill:#766D50;}
	.st79{fill:#53504C;}
	.st80{fill:#63605B;}
	.st81{fill:#D8BE9C;}
	.st82{fill:#D9BF9D;}
	.st83{fill:#D7BE9D;}
	.st84{fill:#3E3630;}
	.st85{fill:#665E52;}
	.st86{fill:#49443C;}
	.st87{fill:#A8D78A;}
	.st88{fill:#FDB661;}
	.st89{fill:#FDAFAF;}
	.st90{fill:#FE8383;}
	.st91{fill:#73C8DF;}
	.st92{fill:#8FE4D7;}
	.st93{fill:#EAE1B3;}
	.st94{fill:#FEB99F;}
	.st95{fill:#D6F692;}
	.st96{fill:#A3D6E9;}
	.st97{fill:#D6AADB;}
	.st98{fill:#FEECA1;}
	.st99{fill:#D9E1BB;}
	.st100{fill:#BF88C9;}
	.st101{fill:#FDD3D4;}
	.st102{fill:#FEFEFE;}
	.st103{fill:#FDFDFD;}
	.st104{fill:#E1E1E1;}
	.st105{fill:#DCC19F;}
	.st106{fill:#FEF6E9;}
	.st107{fill:#373737;}
	.st108{fill:#22211D;}
	.st109{fill:#4B443B;}
	.st110{fill:#D5BFA3;}
	.st111{fill:#F4ECDF;}
	.st112{fill:#8E7F71;}
	.st113{fill:#D2BCA9;}
	.st114{fill:#A19080;}
	.st115{fill:#DBC09E;}
	.st116{fill:#A49383;}
	.st117{fill:#312C27;}
	.st118{fill:#99897A;}
	.st119{fill:#3A352F;}
	.st120{fill:#928374;}
	.st121{fill:#8B7D6F;}
	.st122{fill:#302B27;}
	.st123{fill:#8D7E70;}
	.st124{fill:#342E29;}
	.st125{fill:#887A6C;}
	.st126{fill:#EAD794;}
	.st127{fill:#DDCDBD;}
	.st128{fill:#A09386;}
	.st129{fill:#A29588;}
	.st130{fill:#D7C8B8;}
	.st131{fill:#403F3D;}
	.st132{fill:#A19487;}
	.st133{fill:#34322D;}
	.st134{fill:#ECDA9B;}
	.st135{fill:#FDFCF9;}
	.st136{fill:#403A33;}
	.st137{fill:#4F4933;}
	.st138{fill:#948476;}
	.st139{fill:#110F0E;}
	.st140{fill:#0D0C0B;}
	.st141{fill:#9A8A7B;}
	.st142{fill:#BBA795;}
	.st143{fill:#CCB7A4;}
	.st144{fill:#A29081;}
	.st145{fill:#2D2824;}
	.st146{fill:#D0BBA7;}
	.st147{fill:#463F37;}
	.st148{fill:#13110E;}
	.st149{fill:#26221E;}
	.st150{fill:#A19386;}
	.st151{fill:#A09285;}
	.st152{fill:#CBBCAE;}
	.st153{fill:#D3BDA9;}
	.st154{fill:#938475;}
	.st155{fill:#BCA997;}
	.st156{fill:#463F38;}
	.st157{fill:#BFAB99;}
	.st158{fill:#8C7D70;}
	.st159{fill:#8F8072;}
	.st160{fill:#CAB5A2;}
	.st161{fill:#BAA488;}
	.st162{fill:#9D8D7D;}
	.st163{fill:#968677;}
	.st164{fill:#CEB9A5;}
	.st165{fill:#B09E8D;}
	.st166{fill:#AB9D90;}
	.st167{fill:#E7D28C;}
	.st168{fill:#A4D6E9;}
	.st169{fill:#FDAEAE;}
	.st170{fill:#D8E1BA;}
	.st171{fill:#D5F591;}
	.st172{fill:#040404;}
	.st173{fill:#020202;}
	.st174{fill:#FEFEFD;}
	.st175{fill:#21201F;}
	.st176{fill:#2B2723;}
	.st177{fill:#393735;}
	.st178{fill:#FBF2E4;}
	.st179{fill:#DAC2A2;}
	.st180{fill:#232220;}
	.st181{fill:#D8BF9E;}
	.st182{fill:#443F39;}
	.st183{fill:#DBC19F;}
	.st184{fill:#DAC09E;}
	.st185{fill:#5B5650;}
	.st186{fill:#4A4844;}
	.st187{fill:#413E3A;}
	.st188{fill:#1A1918;}
	.st189{fill:#746859;}
	.st190{fill:#555049;}
	.st191{fill:#565047;}
	.st192{fill:#DBCCB8;}
	.st193{fill:#43413D;}
	.st194{fill:#302F2C;}
	.st195{fill:#EFDEA3;}
	.st196{fill:#DEDEDD;}
	.st197{fill:#DFCB88;}
	.st198{fill:#D9BF9C;}
	.st199{fill:#80786C;}
	.st200{fill:#201D1A;}
	.st201{fill:#3F3832;}
	.st202{fill:#979085;}
	.st203{fill:#6A6054;}
	.st204{fill:#AF9D8C;}
	.st205{fill:#FDF4E7;}
	.st206{fill:#FCF3E5;}
	.st207{fill:#645848;}
	.st208{fill:#2F2A25;}
	.st209{fill:#4E463E;}
	.st210{fill:#FCFBFB;}
	.st211{fill:#F8F0E3;}
	.st212{fill:#D7D7D7;}
	.st213{fill:#75695D;}
	.st214{fill:#CDB8A4;}
	.st215{fill:#918274;}
	.st216{fill:#4A433C;}
	.st217{fill:#C5B19E;}
	.st218{fill:#3E3832;}
	.st219{fill:#4D453D;}
	.st220{fill:#100E0D;}
	.st221{fill:#948576;}
	.st222{fill:#A89786;}
	.st223{fill:#968678;}
	.st224{fill:#9E8D7E;}
	.st225{fill:#3D3731;}
	.st226{fill:#B7A492;}
	.st227{fill:#36302B;}
	.st228{fill:#514941;}
	.st229{fill:#5E544B;}
	.st230{fill:#AE9B8B;}
	.st231{fill:#35302B;}
	.st232{fill:#62584E;}
	.st233{fill:#554C44;}
	.st234{fill:#3A342E;}
	.st235{fill:#FCFCFC;}
	.st236{fill:#E2D6C8;}
	.st237{fill:#AF9C8D;}
	.st238{fill:#363534;}
	.st239{fill:#353432;}
	.st240{fill:#F7F7F7;}
	.st241{fill:#CAB79F;}
	.st242{fill:#BBA68A;}
	.st243{fill:#B19F8F;}
	.st244{fill:#C3AE9C;}
	.st245{fill:#FAFAFA;}
	.st246{fill:#68635C;}
	.st247{fill:#E2D6C7;}
	.st248{fill:#D1BA9D;}
	.st249{fill:#655B50;}
	.st250{fill:#908173;}
	.st251{fill:#DFCBB0;}
	.st252{fill:#24211D;}
	.st253{fill:#776B5F;}
	.st254{fill:#C5B59F;}
	.st255{fill:#887A6D;}
	.st256{fill:#D1BBA8;}
	.st257{fill:#39332D;}
	.st258{fill:#ECE1D2;}
	.st259{fill:#8F7F71;}
	.st260{fill:#CBB393;}
	.st261{fill:#292521;}
	.st262{fill:#61574E;}
	.st263{fill:#2E2925;}
</style>
<metadata>
	<sfw  xmlns="&ns_sfw;">
		<slices></slices>
		<sliceSourceBounds  bottomLeftOrigin="true" height="505.3" width="274" x="176.1" y="136.4"></sliceSourceBounds>
	</sfw>
</metadata>
<g>
	<path class="st0" d="M210,469c-0.7,0.3-1.3,0.6-2,1c-3.6,0.4-7.3,0.3-10.8,1c-15.6,1.9-31.3,2.2-46.9,2.4c-4.1,0.3-8-0.9-12-1.1
		c-0.5-0.5-0.5-1.1,0-1.6c1.9-1.4,4.1-1.2,6.3-1.2c14.8,0.3,29.5-1.3,44.3-2.8c4.2-0.4,6.6-2.2,8.2-6c5.2-12.5,7.9-25.4,7.6-38.9
		c-0.1-4.2-0.1-8.3,0-12.5c0.1-3.4-1.5-4.8-4.8-4.8c-4.7,0-9.3,0-14,0c-23.5,0-46.9,0-70.4,0c-2.6,0-5.4,0.7-7.4-1.8
		c1-2.4,3.2-2.1,5.1-2.1c34.4-0.1,68.8-0.1,103.2,0c2.3,0,4.8,0.1,5.8,2.8c1.9,4.9,1.9,10.1,2.1,15.2c0.5,13.1,1.5,26.1,0.4,39.2
		c-0.5,6-2.5,8.7-8.3,10.1C214.2,468.5,212.2,469.8,210,469z"/>
	<path class="st1" d="M221.1,404.9c0.3-3.1-1.8-2.9-3.9-2.9c-13.5,0-26.9-0.1-40.4-0.1c-21.3,0-42.5,0-63.8,0.1
		c-1.6,0-3.6-1.1-5,0.9c1.1,1.7,0.6,3.5,0.5,5.3c-1.3,15.7-2.5,31.4-2.1,47.1c-0.5,3,0.4,6-0.8,8.9c-0.3,0.6-0.8,0.8-1.5,0.6
		c-1.8-14.8-0.3-29.5,0.3-44.3c0.2-5.1,0.8-10.3,1.4-15.3c0.4-2.8-0.7-3.3-3.2-3.3c-9.8,0.1-19.6,0-29.4,0c-3,0-5.7-0.4-6.2-4.1
		c0.9-3.4,0.4-6.9,0.4-10.4c0.1-16.7,0-33.5,0.1-50.2c0-1.5-1.3-3.8,1.5-4.5c2,2.3,1.5,5,1.5,7.6c0.1,16.8,0,33.6,0,50.4
		c0,6.9,0.4,7.4,7.4,7.4c48.9,0,97.9,0,146.8,0c7.9,0,8.5-0.6,8.5-8.6c0-32.5,0-64.9,0-97.4c0-8-0.8-8.8-8.9-8.8
		c-48.8,0-97.5,0-146.3,0c-3.4,0-6.8-0.1-8.7,3.4c-0.3,0.5-0.8,0.9-1.3,1.2c-2.2,0-2.6-1.8-3.3-3.3c1.7-1.7,2.8-4.2,5.7-4.1
		c8.2-1,16.4,0.3,24.6-0.7c0.3-0.1,0.7-0.2,1-0.3c2-1.4,4.3-1.3,6.5-0.8c2.4,0.8,4.9,0.5,7.4,0.5c38,0,76,0,114,0
		c2.7,0,5.3-0.1,8,0.1c3.5,0.5,5.5,2.5,6.2,6c0.2,1.1,0.2,2.3,0.2,3.4c-0.1,3.5-0.3,7,4.1,8.4c1,0.3,1.3,1.4,0.5,2.4
		c-1.8-0.3-3.6-0.6-6-1.1c0,1.9,0,3.6,0,5.3c0,29.1,0,58.3,0,87.4c0,10.1-0.3,10.5-10.2,10.5c-0.8,0-1.7,0-2.5,0
		C222.4,402.2,224.7,406.8,221.1,404.9z"/>
	<path class="st2" d="M306.9,273.8c-3.2,0-6.3-0.3-7.4,4.2c-0.6,2.3-3.4,2-5.6,2.2c-5,0.4-10.1-1.1-15.1,0.8c-1,0.4-2.1,0.4-3.2,0.4
		c-8-0.1-15.9,0.3-23.9,0.1c-1.1,0-2.3,0.3-3.4,0.2c-5.3-0.4-10.7,0.1-15.9-1.2c-10.4,0-20.7,0-31.1,0c-1.6,0-4,0.9-3.6-2.4
		c2.4-2.2,5.3-1.6,8.1-1.6c26.8-0.1,53.6,0,80.5,0c1.8,0,3.7,0.1,5.5-0.1c1.3-0.2,3.7,0.3,3.5-1.7c-0.2-1.9-2.3-1.4-3.7-1
		c-2.8,0.8-5.6,0.9-8.4,0.9c-23.8,0-47.6,0-71.5,0c-1.7,0-3.3,0-5-0.2c-4.9-0.7-7.8-3.1-8-8.1c-0.6-13.1-0.5-26.3,0-39.5
		c0.2-5.1,3.2-7.7,8.4-8.2c3.5-0.4,7-0.2,10.5-0.2c21.7,0,43.3,0,65,0c10.4,0,11.4,0.9,13.7,11.1c0.2,0.5,0.3,1.1,0.3,1.7
		c-1.8,3.1-3.4,6.5-7.9,6.4c-0.9-1.6,0-2.8,0.6-4.2c3.3-7.4,1.5-10.1-6.5-10.1c-0.5,0-1,0-1.5,0c-3.5,0.2-6.9-0.1-10.4,0
		c-5.8-0.1-11.5,0.1-17.3,0c-1.8,0.1-3.6,0.1-5.3,0c-1.7,0-3.5,0.1-5.2,0c-4.3,0.2-8.6-0.6-12.8,0.5c-1.7,0.4-3.5,0.4-5.2,0
		c-6.4-0.5-12.8-1.5-19.2,0.5c-2,1.7-2.2,4-2.2,6.3c-0.1,10.6-0.1,21.1,0,31.7c0,2.2,0.2,4.3,1.9,6c3.2,2.1,6.7,0.9,10,1
		c3.1,0.1,6.2,0.2,9.3,0.1c2-0.1,4-0.1,6.1,0c2,0,4-0.1,6,0c1.7,0,3.4-0.1,5.2,0c2-0.1,4.1,0,6.1,0c2.1-0.1,4.1,0,6.2,0
		c5.4-0.1,10.9,0.1,16.3,0c3.4,0.1,6.8-0.1,10.2,0c0.5,0,1,0.1,1.5,0.1c7.7,0.3,7.7,0.3,5.1-6.6c-0.6-1.5-0.9-3.1-1.4-4.7
		c-1.7-5.8-1.9-11.7,0-17.5c0.5-1.3,1.1-2.4,2.4-3c0.7,0.2,1.4,0.5,2,1.1c0.2,0.5,0.3,1,0.2,1.5c-0.7,2.8-1.5,5.6-1.2,8.5
		c0,0.5,0,1,0,1.4c-0.3,3.4,0.8,6.6,1.5,9.8c0.3,1.1,0.4,2.2,1,3.2c1.1,1.7,2.6,2.9,4,4.3c2.4,3,5.9,3.7,9.4,4.3
		C306,272.3,307,272.5,306.9,273.8z"/>
	<path class="st3" d="M49.1,296.4c0.6-0.6,1.3-1.3,1.9-1.9c3.4-5.3,7.9-8.3,14.5-7.3c5.8,1.8,5.3,6.4,4.9,11c0.9,0.9,2.4,0.8,3.1,2
		c-0.4,3.1-2.1,5.5-3.6,8.1c-0.4,0.2-0.9,0.4-1.4,0.2c0,0.3,0.2,0.4,0.6,0.4c1.7,0.2,3.3,0.6,4.2,2.2c-1.8,2.6-3.7,5.2-6.1,7.4
		c-0.9,0.2-1.8-0.2-2.7-0.1c1.5,0.1,2.8,0.3,3.7,1.6c-2.1,3.1-2.9,6.7-4.1,10.1c-3.6,1.3-6.1-1.4-8.9-2.6
		C45.4,320.7,43.1,309,49.1,296.4z"/>
	<path class="st4" d="M69,333c-1.5,1.5-0.9,3.4-0.9,5.2c0,18.2,0,36.4-0.1,54.6c0,1.7,0.6,3.7-0.9,5.2c-0.9-9.7-0.3-19.5-0.4-29.3
		c-0.1-10.6-0.2-21.2,0.1-31.8c0.1-3.8-1.3-5-4.7-5.1c0-2.2,2.9-0.8,3.2-2.6c2.7-2,6.1-3.2,7.7-6.5c0.4-0.6,0.8-1.1,1.3-1.5
		c2.1-2.1,3.9-4.3,4.2-7.4c0.3-1.1,1-2.1,1.2-3.3c0.8-1.7,0.8-4.7,4-2.6c1.1,2.7,0.3,5.3-0.8,7.7c-2,4.3-2.5,8.9-2.5,13.6
		c0.1,17.5,0,34.9,0.1,52.4c0,6.2,0.2,6.4,6.3,7c3.3-0.1,6.7-0.1,10,0c3-0.1,6-0.1,9.1,0c3-0.1,6-0.1,9,0c3-0.1,6-0.1,9,0
		c3.3-0.1,6.6-0.1,9.9,0c3-0.1,6-0.1,9,0c3-0.1,6-0.1,9,0c3-0.1,6-0.1,9,0c3.3-0.1,6.6-0.1,9.9,0c3-0.1,6-0.1,9,0c3-0.1,6-0.1,9,0
		c3-0.1,6-0.1,9,0c3-0.1,6-0.1,9,0c3-0.1,6-0.1,9,0c2.5,0,4.9-0.3,7.3,0.7c0.9,0.5,1.4,1.3,1.1,2.3c-1.5,2.1-3.8,1.9-5.9,1.9
		c-44.6,0.1-89.3,0.1-133.9,0c-6.8,0-8.9-2.2-8.9-9.2c-0.1-16.3,0-32.6-0.1-49c0-1.8,0.8-4.4-0.6-5.2c-2-1.2-3.2,1.7-5,2.4
		C69.6,332.7,69.3,332.8,69,333z"/>
	<path class="st5" d="M150,472.1c16-0.6,32-1.3,48-1.9c0.6,0.5,0.6,1,0,1.5c-5.7-0.9-7.8,1.5-8.6,7.3c-2.2,16.9-4.3,33.8-4.2,50.8
		c-0.4,0.4-0.9,0.5-1.5,0.5c-2.7-1.5-1.9-3.9-1.7-6.1c0.7-7.2,0.8-14.4,1.5-21.6c0.3-2.7-0.5-4.7-3.9-3.7c-2.4,0.4-4.8,0.6-7.2-0.2
		c-2.8-0.9-3.4,0.7-3.7,2.8c-1.2,3.6,0.5,7.6-1.3,11.1c-2.5,1.1-2.3-1.1-2.6-2.3c-0.5-2.1-0.2-4.3-0.3-6.5c-0.1-5.3-0.1-5.3-5.2-4.6
		c-1,0.1-2,0.2-3,0.4c-7.4-1.1-3.6,4.6-4.5,7.4c-0.3,0.9-0.6,2-1.9,1.9c-0.9-7.1-3.7-14-3.2-21.3c0.9,0,1.5,0.6,1.9,1.4
		c4,7.5,4.8,7.9,12.9,5.4c2.2-1.2,2.9-3.1,2.8-5.4c-0.1-4.2,1.3-8.8-0.5-12.3c-2.2-4.6-7.5-1.2-11.3-2.3c-0.8-0.2-1.6-0.3-2.4-0.7
		C149.9,473.1,149.7,472.7,150,472.1z"/>
	<path class="st6" d="M295.9,231.9c0-0.3,0-0.6,0-0.9c0.1-1,0.7-1.9,1-2.8c2.2-8.8,0.1-11.6-8.9-11.6c-27.9,0-55.8,0-83.7,0
		c-3.2,0-6.3,0.5-9.4,0.9c-0.6,0-1.1-0.3-1.3-0.8c-0.8-4.3,4.7-4.5,5.3-8c0.1-0.6,2.1-0.6,2.7,0.1c3,4.2,7.4,2.7,11.3,2.9
		c3.6,0.2,7.3,0,10.9,0c1,0,2.1,0,3.1,0c1.5,0,3,0,4.5,0c4.9,0.5,6.2-4.2,9.1-6.5c0.8-0.8,1.5-1.8,2.4-2.6c0.7-0.5,1.5-1.1,2.2-0.4
		c0.8,0.8,0.6,1.8,0,2.7c-3,1.7-3.5,5.4-6.7,6.9c0.2,0.4,0.4,0.8,0.6,1.2c14.2,0,28.4,0,42.7,0c2.8,0,5.7,0,8.5,0
		c9.8,0,9.9,0,10.7,9.6c0.2,1.9,0.9,2.5,2.5,3.1c2,0.7,3.9,1.5,4.9,3.6c-0.4,0.3-0.8,0.4-1.3,0.4c-2-0.2-4.8-2.4-4.7,2.1
		c-0.8,1.2-2.1,1.3-3.4,1.4C297.7,233.1,296.6,232.9,295.9,231.9z"/>
	<path class="st7" d="M58.9,187c-4.5-2.3-6.9-9.4-4.8-13.9c0.8-0.7,1.7-0.9,2.7-0.4c0.1,5.9,2.4,6.6,10.1,2.8c-2.6,1-4.4,1.5-6-0.3
		c-0.2-0.8,0.1-1.3,0.8-1.8c1.6-1.1,4.8-0.4,4.1-3.9c1.1-1.3-1.9-1.7-0.6-3c2.2-2.2,1.6-5,1.6-7.7c0-0.8-0.1-1.5-0.1-2.3
		c0-3.4,0.1-6.9,0-10.3c0-0.8-0.3-1.5-0.4-2.3c-0.4-2.1,0.4-4,0.9-6c0.9-2.4,0.7-4.7,0.1-7.1c-0.3-3.3,1-6.3,1.8-9.4
		c0.8-1.6,0.3-3.2,0.2-4.8c0.4-3.1,1.6-5.8,3.9-7.9c0.6-0.1,1,0.1,1.4,0.5c1.4,4.2-0.7,8-1.3,12c-0.4,2.7-0.6,5.1,0.4,7.7
		c0.1,1.7-0.3,3.2-0.8,4.8c-2,5.5-1.9,11.3-1.6,17c0.3,5.4-0.3,10.9,0.8,16.2c-1.5,5.5,1.8,10.1,2.6,15.2c0.2,1.3,1,2.4,1,3.8
		c-0.1,0.8-0.5,1.3-1.3,1.4c-2.1-0.8-2.9-2.6-3.3-4.5c-0.4-1.9-1.5-0.1-2-0.6c-0.6-0.5-1-2-2.1-0.6c-1.5,1.8-2.4,4-4.2,5.5
		C61.3,187.5,60.1,187.6,58.9,187z"/>
	<path class="st8" d="M101.9,279.7c-2,0-3.9,0.1-5.9,0.1c0-0.3,0-0.6,0.1-0.9c8.7-5.7,16.7-12.4,25.8-17.5c2.2-1.3,4.2-4.1,7.5-2.3
		c-1.3,7.9-4,15.3-9.5,21.3c-3.5,0.2-7.2,0.8-10.4-0.2C106.8,279.4,104.4,280.1,101.9,279.7z"/>
	<path class="st9" d="M193,559.4c-5.2,0.7-9-2.3-12.9-4.9c-2.6-1.7-5.1-2-8.4-2.1c-8.2-0.4-14.9,3-22.2,5.2
		c-1.4,0.4-2.9,0.6-4.4,0.7c-9.5,0.8-12.8-3.9-9.2-12.7c3.2-7.7,9.1-13.3,15.1-18.8c0.9-0.3,1.3,0.2,1.6,0.9c0.1,1.1-0.4,1.9-1,2.7
		c-3.2,4.7-3.2,4.7,1.5,7.7c1.3,1.2,2.7,2.2,4.5,2.4c0.7,0.4,0.9,1,0.6,1.8c-1.3,2.3-3.6,3.4-5.9,4.1c-5,1.7-7.9,0-10.1-5.9
		c-1.6,2.2-2.9,4.4-3.7,6.8c-1.9,5.6,0.7,8.8,6.6,7.9c1.8-0.3,3.5-1.1,5.2-1.5c4.3-0.4,7.7-3.6,12.1-4.1c2-0.2,2.1-2.2,2.5-3.8
		c1-3.8,0.5-7.9,1.8-11.7c0.3-0.4,0.8-0.6,1.3-0.6c1.3,0.7,1.6,1.8,1.8,3.1c-0.2,2.1-0.4,4.3-0.3,6.4c0.1,5.4,0.4,5.6,5.6,4.9
		c2.8,0.3,4.7,2.2,6.7,3.8c3.5,2.8,7.9,3.8,11.6,6.2C193.3,558.5,193.3,559,193,559.4z"/>
	<path class="st10" d="M150.1,473c4.3,0,8.6,0.1,12.8-0.1c2.6-0.1,3.5,0.8,3.3,3.4c-0.2,4.4-0.4,8.9-0.2,13.4c0.1,3.3-0.8,5.4-4.2,6
		c-3.8-1.2-4.4-4.4-4.1-7.6c0.4-4.6-1.4-7.1-5.9-8c-2.7-0.6-5.4-1.6-7.8-3.1c-0.3-1-0.6-2-0.9-3C145.1,471,147.6,472.6,150.1,473z"
		/>
	<path class="st11" d="M129,258.6c-10.1,5-19.3,11.4-28.1,18.4c-1.4,1.1-2.6,2.6-4.8,2c10-9.5,22-16.1,34-23.7
		c-6.6-2.2-13.3-3.5-19-7.2c-1.3-0.6-3.3-1.1-1.5-2.9c4.2-4.1,3.3-8.3,0.9-12.8c1-2.8,4.4-4,5-7.1c2-2.2,3.1-1.4,3.6,1.1
		c0.5,2.2-0.5,4.3-0.7,6.4c-0.8,3.5-1.3,7.2-2.8,10.4c-1.5,3.1-0.1,4.1,2.4,5c2.3,0.8,4.7,1.4,7.1,1.8c8.2,2.4,16.7,2.9,24.9,4.8
		c0.6,0.7,0.7,1.5,0.3,2.4c-1.1,1.1-2.5,1.2-3.9,1.3c-1.6,0.1-3.1,0-4.7-0.2c-0.9-0.1-1.9-0.4-2.8-0.7c-1.1-0.2-2.2-0.3-3.3-0.2
		c-0.4,0.1-0.8,0.1-1.3,0.2C132.5,257.6,131,259.3,129,258.6z"/>
	<path class="st12" d="M144,476.9c5.1-0.3,9.3,2.5,13.9,3.9c1.8,0.5,1,3.2,1,5c0,3.6-0.5,7.3,2.9,9.9c-1.6,0.9-3.4,1.1-5.2,1.3
		c-4.9,0.6-8-1.1-8.5-6.3c-0.1-1.1,0.2-2.4-1.1-3.1C146,484,145,480.5,144,476.9z"/>
	<path class="st8" d="M243,300c0-0.2,0.1-0.5,0-0.5c-7.8-1.9-6.4-7.9-5.9-13.4c4-2.5,7.6-1,11.2,1.1c0.6,1.3,0.3,2.4-0.1,3.3
		c1-1,0.4-3.3,2.2-4.2c2.7-0.8,5.9-1.6,7.6,0.9c2,2.8,0.2,5.9-1.2,8.6c-2.7,2.2-5.9,3-9.2,3.1C246.1,299.5,244.7,300.5,243,300z"/>
	<path class="st13" d="M232.8,116.1c3,6.1,3.2,12.7,3.9,19.2c0.8,6.7,1.8,13.3-0.9,20.3c-1.3,3.5-0.7,9,1,13.5
		c-1.6,0.9-2.9,2.3-4.7,2.8c-0.7,0.1-1.3,0.1-2,0.1c-1.9,0-4.5,1.1-5.3-1.2c-1-2.9,3.1-1.7,3.7-3.5c0.8-0.5,1.6-0.9,2.4-1.3
		c-1.2,0.5-2.4,1-3.3,2c-2,1-4.1,1.9-6.4,0.8c-0.4-0.3-0.6-0.7-0.6-1.2c2.3-2.2,5.8-1.9,8-4.2c1.2-1.2,3.1-1.8,3.5-3.9
		c-1.3-1.1-1.9,0.4-2.9,0.8c-1.8,0.9-3.8,3.5-4.9-0.7c0.7-2.1,2.5-3,4.2-4c5.7-3.1,6.2-4.3,4.2-10.1c-1.7-0.3-3,2.3-4.9,0.8
		c-0.7-0.9-0.4-1.8,0.2-2.6c1.7-1.5,1.6-3.8,2.1-5.7c0.7-1.8,0.6-4,2.8-4.9c0.5,0,0.9,0.1,1.1,0.7c0.4-0.5-0.3-0.7-0.4-1
		c-1.6-5.2-2.4-10.5-2.2-16C231.9,116,232.3,115.8,232.8,116.1z"/>
	<path class="st14" d="M111.2,232c4.2,5.4,4.1,7.9-1.2,13.8c-1.8,2,1.5,1.1,1.1,2.2c-1,0.3-2.3,0-3,1.1c-4.2,0.1-8.5,0.5-10.3-4.6
		c0.9-1.8,2.9-1.3,4.3-1.9c1.1-0.4,2.4-0.8,2.2-2.3c-0.1-1.2-1.4-1.2-2.3-1.5c-5.4-1.8-10.2-4.7-14.3-8.6c-0.4-0.7-0.5-1.4-0.3-2.2
		c0.3-0.8,0.7-1.3,1.6-1.4c3.8,1.9,7,5.1,11.5,5.6C104,234.2,107.6,230.4,111.2,232z"/>
	<path class="st15" d="M71.1,227.8c-10.8-6.5-16.5-16.1-17.4-28.7c-0.1-1.3,0.6-1.6,1.3-2.2c1.1-0.2,2.2-0.5,2.9,0.9
		c2.4,10.7,7,20.2,15.4,27.6C73.3,226.9,72.1,227.2,71.1,227.8z"/>
	<path class="st16" d="M210,469c0.3-0.1,0.6-0.2,1-0.3c12.8-3.9,13.1-4.2,13-17.6c-0.1-11-0.7-21.9-1.1-32.9c1-2.6-0.6-5.9,2-8.1
		c1.6,16,2,32,0.2,48.1C224.1,466.3,217.6,470.9,210,469z"/>
	<path class="st17" d="M70,121.1c-0.7,3.3-1.5,6.6-2.2,9.9c0.6,4.5-1.9,8.2-3,12.3c-0.8,3-1.9,6-2.8,9c-0.2,0.4-0.5,0.8-0.8,1.2
		c-1.5,1-3.1,1.8-4.2,3.3c-0.9,1.3-2,3.1-3.8,2.1c-1.4-0.8-1.8-2.6-1.4-4.4c0.2-0.8,0.8-1.5,0.5-2.3c0.5-0.7,1.1-1.5,1.6-2.2
		c1.2-0.2,0.6-1.4,0.9-2c0.5-0.8,1.2-1.2,2-1.7c4.3-6.2,6-13.5,9.2-20.2C66.9,124.1,66.9,121.3,70,121.1z"/>
	<path class="st18" d="M182.9,63.4c13,2.6,24,9.1,34,17.6c2.7,2.3,5.4,3.9,6.1,7.6c0.1,0.5,0.2,0.9,0.2,1.4c-2.1,1-2.4-1.1-3.4-1.9
		c-6.6-5.9-12.6-12.6-21.2-15.7c-1.2,0.7-1.2,1.7-0.7,2.8c0.6,2.4,3.5,5.7,0.5,7c-3.2,1.4-3-3-3.9-4.9c-2.2-4.6-4.6-8.8-10-10.2
		c-1.1-0.3-2.1-0.9-2.8-1.9C181.6,64,182.1,63.6,182.9,63.4z"/>
	<path class="st19" d="M193,559.4L193,559.4c1-2.8,4-2.5,6-3.6c4.3-3.5,4.4-4.1,1-10.7c-0.1,3.6-2.3,5.1-5.3,5.8
		c-3.7,0.2-7-0.7-9.7-3.4c-0.6-1-0.4-1.9,0-2.9c0.6-1.5,1.4-3,2.7-4.1c1.8-1.2,4-1.9,5.6-3.4c0.6-0.4,1.1-0.7,1.8-0.3
		c3.5,2.5,7,4.9,9,9c3.3,6.5,0.9,11.4-6.3,13.1C196.2,559.4,194.6,559.9,193,559.4z"/>
	<path class="st20" d="M116.8,59.6c-2.9,2-6.4,2.8-10.2,2.8c-1.5,0-2.9,0-4.4,0.1c-4.5,1.6-8.7,4.1-13.2,5.8c-1.4,0.7-2,1.6-1.1,3.1
		c0.9,0.7,1.8,0.7,2.8,0.4c1.1-0.5,1.9-1.4,2.9-2c2.9-1.7,6-3,9.3-3.6c0.9-0.2,1.8-0.4,2.7-0.9c-0.3,1-1.3,1.2-1.8,1.9
		c-0.3,0.3-0.6,0.6-0.9,1c-1.6,2-3.8,3.2-5.3,5.2c1.8,2.3-0.5,4.7,0.3,7c2.3,0.5,3.3-1.4,4.6-2.7c1-1.8,2.7-3.2,3.3-5.3
		c2.2-5.1,6-7.9,11.5-8.5c1-0.3,1.8-0.8,2.1-1.9C119,60.4,118,59.9,116.8,59.6z"/>
	<path class="st21" d="M155.1,57.7c-3.7,0.5-7.4,0.8-11.2-0.7c-5.7-2.2-11.6-3.8-17.8-1.8c0,0,0,0-0.1,0c0.5,2.6,2.9,2,4.5,2.9
		c2.5,0.5,5.1,0.4,7.3,1.3c6.9,2.7,13.9,2.4,21,1.6c1.4-1.1,2.9-1.9,4.2-3C160.5,56.4,157.8,57.4,155.1,57.7z"/>
	<path class="st22" d="M98,244.1c2.3,3.8,6.4,4,10.1,4.9c0.2,0,0.3,0.1,0.5,0.1c0.5,0.2,0.7,0.9,0.3,0.8c-3.4-0.5-7,1.8-10.3-0.7
		c-0.5-0.4-1.6-0.1-2.4-0.2c-3.1,0.7-4.5-2.5-7.1-3c-1.3-1.7-2.6-3.3-4-5c0.2-0.8,0.7-1.2,1.5-1.3c2.2,0.3,3.5,2.4,5.5,2.8
		c0.5-0.1,0.7-0.3,0.7-0.6c0.1-1.6-1.5-4,0.9-4.7c1.7-0.5,2.3,2,3.2,3.2C97.5,241.5,98.2,242.7,98,244.1z"/>
	<path class="st23" d="M49.1,296.4c-0.9,4.9-2.5,9.7-2,14.9c0.6,6.7,3.5,11.8,8.9,15.6c-0.2,0.7-0.4,1.4-0.9,2
		c-4.5,0.1-5.8-3.9-7.7-6.6C43.6,317,44.9,302,49.1,296.4z"/>
	<path class="st24" d="M247.6,299c2.6-1.4,5.9-1.3,8.3-3.3c1.6-2.2,3.8-3.6,6.1-4.9c5.3-3,9.7-7.3,14.7-10.8
		c0.7,0.3,1.4,0.6,2.1,0.9c-7.8,9.1-17.6,14.9-28.7,18.9C249.2,300.2,248.2,300.1,247.6,299z"/>
	<path class="st25" d="M86.1,239.8c-0.4,0.4-0.7,0.8-1.1,1.2c-0.3-0.4-0.7-0.7-1-1.1c-1.8-0.5-3.2-1.5-4.5-2.8
		c-1.5-1.8-1.4-4.6-3.6-6c-0.8-0.6-1.9-0.7-2.8-1.1c-0.7-0.7-1.3-1.4-2-2.2c0-1.3,0.8-1.7,1.9-1.8c2.5-1,4.5,0.6,6.7,1.1
		c2.3,1.2,4.6,0.4,6.8-0.4c0.8,0.1,1.1,0.6,1.4,1.3c0,0.6,0,1.3-0.1,1.9C81.3,232.2,84.8,236.2,86.1,239.8z"/>
	<path class="st26" d="M65.1,167.3c0.7,0.4,1.5,0.9,2.2,1.3c-0.4,0.2-0.8,0.3-1.2,0.5c-0.6,0.6-1.3,1.1-2.1,1.1
		c-3.9-0.2-2.4,2-1.8,3.9c-0.4,0.3-0.7,0.5-1.1,0.8c-2,1.2-3,0-3.8-1.6c-1,0-2.1,0-3.1-0.1c-0.2-0.8,1.8-1.5,0-2.3
		c-0.6-1.5-0.2-2.9,0.7-4.1c4.2-1.6,7.5-4.2,9.8-8.1c0.7-1.1,1.7-2,3.2-1.7c0,0.8,0,1.6,0,2.4c-1.1,2.2-2,4.5-3.7,6.4
		C62.7,167.2,65.4,166.4,65.1,167.3z"/>
	<path class="st27" d="M56.3,118.1c0.8-4.7,2.3-9.2,4.6-13.4c2.6-2.8,3.4-6.8,6.2-9.4c1.6-1.1,2.2-3.8,5-3c0.5,0.6,0.6,1.3,0.4,2
		c-4.7,7.8-10.1,15.1-13.8,23.5c-0.3,0.4-0.7,0.7-1.2,0.8C57.1,118.6,56.7,118.4,56.3,118.1z"/>
	<path class="st28" d="M89,68.2c-0.3,1-0.6,2-1,3c0.1,1.7-2.3,1.2-2.2,2.8c0.8,1.9,0,3.2-1.6,4.1c-2.5,1.3-4.3,3.6-7.1,4.3
		c-1.3-0.2-2.3-0.6-1.9-2.2c3.2-3.4,6.3-6.8,9.6-10.1C85.9,69,87.1,67.8,89,68.2z"/>
	<path class="st29" d="M233,170.6c1-1.2,1.8-2.9,3.8-1.6c0,1.3-0.3,2.4,0.9,3.6c3.6,3.5,5.8,8,8.2,12.3c0.5,0.9-0.1,1.3-0.9,1.5
		c-1.4,0-2.1-0.9-2.6-1.9c-2.1-4.1-5.5-6.9-9.1-9.5c-0.7-0.7-1.4-1.3-1.7-2.2C231.5,171.8,232.6,171.4,233,170.6z"/>
	<path class="st30" d="M104.2,464.9c0.3,0,0.5,0,0.8,0c6.6,1.2,12.9,3.5,19.6,4.1c3.1,0.3,6.2,0.4,9.3,0.5c1.4,0.1,2.9,0.2,3.8,1.5
		c0.1,0.2,0.3,0.5,0.4,0.7c-0.8,1.1-2.2,0.2-3.2,1c-9.3-0.6-18.6-1.2-27.6-4.3C105.5,467.8,104.3,467,104.2,464.9z"/>
	<path class="st31" d="M75.1,80.3c0.6,0.6,1.2,1.2,1.8,1.8c0.3,4-3.4,5.7-5.1,8.5c-1.1,1.8-3.2,2.9-3.5,5.3
		c-3.1,2.6-4.7,6.2-6.2,9.7c-0.3,0.7-0.6,1.2-1.1,0.1c-0.1-0.3-0.1-0.6-0.1-1c1.5-5.5,4.8-10,8.1-14.6
		C71.2,86.9,73.6,83.9,75.1,80.3z"/>
	<path class="st32" d="M222.9,90.2c0.1-0.6,0.1-1.1,0.2-1.7c5,8.6,9.6,17.3,9.7,27.5c-0.2,0-0.4,0-0.7,0
		C228.3,107.7,223.7,99.6,222.9,90.2z"/>
	<path class="st33" d="M160,59.9c-0.6-3.4,2.2-1,3.1-1.8c7.2-0.5,13.5,2.4,19.8,5.3c-0.3,0.2-0.6,0.5-1,0.7
		c-1.6,1.3-3.2,0.2-4.6-0.4c-2.4-0.9-4.7-1.3-7.3-0.9C166.8,61.7,163.4,61,160,59.9z"/>
	<path class="st34" d="M73.1,230c1-0.4,1.9-1.6,3-0.1c1.1,2.5,1.8,5.2,4.1,7c1.8,0.4,3.2,1.2,3.9,3c-3.2,1.8,0.9,3.8-0.4,5.9
		C79,241.3,75.4,236.1,73.1,230z"/>
	<path class="st35" d="M126.1,55.3c-0.8,0.3-1.6,0.6-2.4,1c-2.3,1-4.4,2.2-6.5,3.1c-0.4,0.3-0.7,0.5-1.1,0.7c1,0.6,2,1.2,3,1.8
		c4.3,0.4,7.2-2.8,10.7-4.3c0.1-0.2,0.2-0.4,0.3-0.6C128.7,56.4,127.4,55.8,126.1,55.3z"/>
	<path class="st36" d="M298.7,232.2c1-0.4,2.4,0,3.2-1.1c1.3-1.2,2.6-0.4,4-0.1c1.5,0.7,2.5,0.3,2.9-1.3c4.4,1.5,3.6,6.5,6.1,9.3
		c0.3,0.3,0.4,0.5,0.3,0.8c-0.1,0.3-0.2,0.4-0.3,0.4c-3.2,0.1-5-2.6-7.7-3.6C305,234.1,300.6,235.4,298.7,232.2z"/>
	<path class="st37" d="M66.1,288.1c-6.8-2.1-10.6,2.9-15,6.4c1.5-4.9,7.5-9.1,13.7-9.6c2.2-0.1,2,1.6,2.4,3
		C66.9,288.4,66.5,288.4,66.1,288.1z"/>
	<path class="st38" d="M57,197c-0.7,0.1-1.4,1.2-2-0.1c0.3-3.7,1.2-7.2,3.9-9.9c1-0.5,2-0.8,3,0C62,191.2,59.9,194.3,57,197z"/>
	<path class="st39" d="M314.7,240.6c0.1-0.5,0.1-1,0.2-1.5c4.4,8.5,6.1,17.1,1.4,26.1c-0.5,0.4-0.9,0.4-1.4,0.1
		c-0.3-0.6-0.5-1.3-0.2-1.9c2.6-6.5,1.8-13-0.2-19.4C314.1,242.8,314,241.6,314.7,240.6z"/>
	<path class="st40" d="M244.9,204.9c-0.1-0.6,0.1-1.5-0.3-1.8c-1.1-0.9-1.2,0.5-1.6,1c-0.7,0.7-1.3,1.4-1.9,2.1
		c-0.7-0.4-0.9-1.1-0.9-1.9c1.3-3.7,4.2-6.2,6.4-9.2c1.2-0.6,1.8,0,2.1,1.1C248.5,199.5,248.2,202.8,244.9,204.9z"/>
	<path class="st41" d="M224.8,410c-1.6,2.5,0.1,5.8-2,8.1c0.6-4.6-0.3-8.9-1.7-13.3c2.8,1,0-4,3-2.8
		C223.3,404.8,225.1,407.3,224.8,410z"/>
	<path class="st42" d="M56.3,118.1c0.2,0,0.4,0,0.6,0c2.8,4.5,0.2,9,0.1,13.5c0,2.3-0.6,4.6-0.3,6.9c-0.1,1.7-0.2,3.4-2.5,3.7
		C53.4,133.9,54.8,126,56.3,118.1z"/>
	<path class="st43" d="M315.1,265c0.4,0,0.8,0,1.3,0.1c-2,4.2-3.3,9-9.5,8.7c-0.7-0.3-1.4-0.6-2.1-0.9
		C308,270,311.7,267.7,315.1,265z"/>
	<path class="st44" d="M52.2,152.1c2,1.9-2.1,4.9,1.9,6.4c2.4-1,2.5-6.2,7-5.5c0.4,1.9-1.6,2.4-2.3,3.6c-1.4,1.7-2.4,3.7-4.5,4.7
		c-1.1,0.3-1.7-0.3-2-1.3C51.2,157.4,49.7,154.8,52.2,152.1z"/>
	<path class="st45" d="M95,280.2c-8.1,1.8-16.4,0.5-24.6,0.7C78.6,279.3,86.9,280.6,95,280.2z"/>
	<path class="st46" d="M54.2,142.1c1.3-0.8,1.5-2.1,1.7-3.4c-0.3-0.7-0.2-1.4,0.4-1.8c0.5-0.1,0.9,0,1.3,0.2c1.8,1.8,1,3.6-0.1,5.2
		c-1.2,1.8-2.4,3.5-2.4,5.7c0.3,0.8,1.2,1.7,0.4,2.5c-0.8,0.8-1.3,0.1-1.7-0.6C53.4,147.3,51.3,144.6,54.2,142.1z"/>
	<path class="st47" d="M195.1,536.9c-0.4,0.4-0.7,0.7-1.1,1.1c-4.8-0.9-8.1-3.7-10.2-8c0.5,0,1-0.1,1.4-0.1
		C188.7,531.9,192.3,533.7,195.1,536.9z"/>
	<path class="st48" d="M52.3,160c0.6,0.3,1.1,0.6,1.7,1c0.9,0.9,0.2,2.4,1.1,3.3c0.2,0.3,0.4,0.7,0.5,1.1c0.1,0.7-0.1,1.3-0.6,1.7
		c-0.3,1.2-0.6,2.4-0.9,3.6c-3.7-0.7-1.4-3.6-1.9-5.5C51.8,163.7,52.3,161.8,52.3,160z"/>
	<path class="st49" d="M55.1,329c-0.6-1.1-0.9-2,0.9-2c2.6,1,4.9,3.2,8,2.8c0.7-0.4,1.4-0.5,2.1,0.1c-0.8,1.7-3,0.4-3.9,1.9
		C59.8,330.8,57.4,329.9,55.1,329z"/>
	<path class="st50" d="M150.2,508.9c0.3-0.7,0.6-1.4,0.9-2.1c4,2.2,1.8,6,2.4,9c-0.8,2.7,1.4,6.2-2.3,8
		C150.8,518.8,150.5,513.9,150.2,508.9z"/>
	<path class="st51" d="M248.7,196.1c-0.6-0.3-1.2-0.7-1.7-1c-1.8-2.7-2.2-5.8-2.1-8.9c0.4-0.4,0.8-0.8,1.2-1.2
		C249.2,188.1,248.5,192.2,248.7,196.1z"/>
	<path class="st52" d="M89,246c3.3-1.3,4.3,2.9,7.1,3c-0.5,0.4,1.1,1.9-0.6,1.6C92.8,250.1,90.5,248.6,89,246z"/>
	<path class="st53" d="M135.1,472.8c1.1-0.3,2.1-0.6,3.2-1c3.9,0.1,7.8,0.2,11.7,0.3c0,0.3,0,0.6,0.1,0.9c-2.2,0.9-4.8-1.1-6.9,1
		C140.6,472.3,137.7,473.3,135.1,472.8z"/>
	<path class="st54" d="M151.2,523.8c1.7-2.5,0.2-5.5,1-8.1c3.3,3.6,3.3,8.9,0,12.4c-0.4-0.4-0.8-0.8-1.3-1.3
		C151,525.8,151.1,524.8,151.2,523.8z"/>
	<path class="st55" d="M198,471.7c0-0.5,0-1,0-1.5c3.4,0.1,6.7-1.5,10-0.3C204.9,472,201.1,470,198,471.7z"/>
	<path class="st56" d="M308.8,229.7c0.6,0.9,1.7,2,0.6,3c-1.1,1-2.5,0.3-3.5-0.6c-0.1-1.1,0.1-2.1,1-2.8c0.4,0,0.8,0,1.3,0.1
		C308.4,229.3,308.7,229.4,308.8,229.7z"/>
	<path class="st57" d="M137.8,471.1c-1.3-0.1-2.5-0.2-3.8-0.3c-7.4-1.7-15-1.9-22-5.3c-4.2-2.1-7.3-4.4-6.8-9.5
		c-0.6-17.8,0.2-35.5,2.9-53c30.8,0,61.5,0.1,92.3-0.1c4.3,0,5.7,1,5.7,5.5c-0.2,14.4,0.5,28.9-4.1,42.9c-0.3,0.8-0.5,1.6-0.8,2.4
		c-4.5,14.1-5.6,14.3-20.3,15.6C166.6,470.3,152.2,471,137.8,471.1z"/>
	<path class="st50" d="M69,333c0.4-4.5,5.3-4.3,8-7.2c0,1.6,0,3.1,0,4.7c0,18.3,0,36.6,0,54.9c0,5.7,1.1,6.8,6.7,6.8
		c45.2,0,90.4,0,135.6,0c1.6,0,3.4,0.4,4.6-1.1c0.4-2.8,0.6-5.6,0.6-8.4c0-27.8,0-55.6,0-83.4c0-7.8-0.8-8.6-8.5-8.6
		c-43.1,0-86.2,0-129.4,0c-2.9,0-5.7,0.1-8.3,1.3c-4.1,0.5-7.3-1.4-10.4-3.8c0.2-4.3,2.3-5.9,6.7-5.9c50.9,0.1,101.9,0.1,152.8,0.1
		c6.6,0,7.4,0.9,7.4,7.6c0,34.5,0,68.9,0,103.4c0,6.3-0.6,6.9-6.8,6.9c-50.9,0-101.9-0.1-152.8,0.1c-5.2,0-6.4-1.8-6.4-6.6
		C69.1,373.3,69,353.1,69,333z"/>
	<path class="st45" d="M101.9,279.7c2.4-0.9,4.8-2,7.5-1.6c-0.4,1.5-2.3,0.2-2.6,1.8c4.4,0,8.8,0,13.2,0c7.1-0.2,7.6-6.3,9.7-10.9
		c0.8-0.4,1.4,0,1.9,0.6c1,2.2,0.5,4.4-0.1,6.5c-0.6,2.1,0.5,2.6,2.3,2.4c17.9-0.4,35.8,0.1,53.7,0c2.1,0,4.2,0.4,6.3-0.5
		c0.4-0.3,0.9-0.5,1.4-0.7c1.1-0.2,2.1-0.2,2.8,0.7c0.6,2.8,2.8,1.8,4.4,1.8c10.3,0.1,20.6,0.2,30.9,0.3c0,0.2,0.1,0.4,0.1,0.6
		c-17.6,0.1-35.2,0.2-52.8,0.2c-24.4,0-48.8,0-73.2,0C105.5,281,103.3,281.8,101.9,279.7z"/>
	<path class="st58" d="M68,287.9c3,0.7,5.9,1.6,8.6,3.1c1.3,0.4,2,1.4,2.7,2.6c0.3,0.6,0-0.2,0.2,0.4c0.9,2.2,3.1,4.8,1.3,6.8
		c-1.9,2.1-4.6,0.1-6.7-0.9c-1.7-0.9-3.4-0.9-5.2-0.9c-1-0.1-2.2-0.3-1.1-1.7c2.6-3.3,2-7-1.7-9.2c0.4-0.1,0.7-0.1,1.1-0.2
		C67.4,288,67.7,288,68,287.9z"/>
	<path class="st59" d="M105.2,456c2.4,9.8,11.3,9.6,18.5,11.9c3.4,1.1,7.1,1.1,10.3,3c-9.9-0.8-20.1-0.1-29-5.9
		C105.1,461.9,105.2,458.9,105.2,456z"/>
	<path class="st60" d="M233.4,280.8c-0.1-0.2-0.1-0.4-0.1-0.6c5.3,0.2,10.6-0.9,15.9,0.6c1.5,2.7,1.7,5.2-1,7.3
		c-3.5-1.9-7.3-2.2-11.1-2.1C237,283.5,235.4,282,233.4,280.8z"/>
	<path class="st61" d="M198,278.1c-1,0-2-0.1-3-0.1c-1.5-1.4-1.3-3.3-1.4-5.1c-0.2-3.5-0.1-7,0-10.5c0.5-12.6-1.5-25.2-0.9-37.8
		c0.1-2.6-0.7-5.4,1.3-7.6c2-1.6,4.3-2,6.9-2c29.1,0.1,58.2,0,87.3,0c10.8,0,10.8,0,10.7,11.1c0,0.8-0.1,1.7,0,2.5
		c0.1,2.2-1.4,2.3-3,2.5c-3-0.4-1.9-2.7-1.9-4.3c0-4.5-2.2-6.7-6.7-6.7c-26.6,0-53.3,0-79.9,0c-5.1,0-7.3,2.2-7.3,7.3
		c-0.1,12.8-0.1,25.6,0,38.4c0,5.1,2.2,7.2,7.4,7.2c26.6,0,53.3,0,79.9,0c1.3,0,2.8,0.2,3.8-0.9c2.6-3,4.3,0,6.4,0.8
		c1.4,0.5,1.6,1.6,1,2.8c-1.2,2.3-3.4,2.3-5.6,2.3c-29.6,0-59.2,0-88.9,0C202,278,200,278.1,198,278.1z"/>
	<path class="st62" d="M298.7,232.2c3.1,1.3,6.9,0.6,9.3,3.7c5.4,9.6,4.4,19.2-1.2,28.2c-2.6,4.1-7.6,3.9-12.1,4.2
		c-1.7-1-2.9-2.5-3.9-4.2c0.5-3.2,3.3-1.9,5.1-2.7c1.6-0.6,3.3-0.7,5.2-1c-3.9-0.2-7.4,2.8-11.2,0.6c-1.6-3.5-2.4-7.1-1.9-10.9
		c4.1-1.4,8.4-0.1,11.9-0.6c-3.5-0.6-7.8,0.9-11.9-0.7c-0.3-3.1-0.4-6.2,1.9-8.8c2.5-0.5,4.8,0.9,7.2,0.6c0.8,0,0.2-1.1,0.3-0.4
		c0,0.3-0.1,0.4-0.3,0.4c-2.5-0.1-4.9-0.4-7.2-1.4c-0.3-0.4-0.5-0.7-0.8-1.1l-0.1,0.1c2.3-2.1,3.9-5,6.9-6.2
		C296.9,232,297.8,232.1,298.7,232.2z"/>
	<path class="st63" d="M294.7,268.2c1-0.5,2.1-1.1,3.1-1.6c2.7-1.4,6.5,0.2,8.5-3.8c3.1-6.3,4.7-12.7,3.2-19.6
		c-0.5-2.4-1-4.8-1.5-7.2c2.6,1,5,2.4,6.7,4.7c2.5,8.1,5,16.3,0.3,24.5c-2.3,4.1-5.7,6.7-10.3,7.8
		C300.7,272.8,297.2,271.7,294.7,268.2z"/>
	<path class="st64" d="M271,222.3c3.6,0,7.2,0.1,10.9,0.2c0.5,0.4,0.9,0.9,1.1,1.5c0.8,15,0.9,30.1,0,45.2c-0.2,0.6-0.6,1.1-1.1,1.5
		c-3.6,0-7.2,0.1-10.9,0.1c0-0.6,0.2-1.1,0.6-1.5c2.3-1.3,2.8-3.4,2.8-5.9c0-11.3,0-22.5,0-33.8c0-2.5-0.5-4.6-2.8-5.9
		C271.2,223.4,271,222.9,271,222.3z"/>
	<path class="st65" d="M253.8,270.8c-2,0-3.9,0-5.9,0c-1.7-1.7-1.6-4-1.6-6.1c-0.1-12.1-0.1-24.3,0-36.4c0-2.1-0.2-4.4,1.6-6.1
		c1.7,0,3.4,0,5.2,0c2.3,1.3,2.4,3.5,2.4,5.6c0.1,12.6,0.1,25.2,0,37.8C255.5,267.6,255.3,269.4,253.8,270.8z"/>
	<path class="st66" d="M248,222.3c0,16.2,0,32.4,0,48.6c-1.9,0-3.9,0-5.8,0c-1.9-1.6-1.8-3.9-1.8-6c-0.1-12-0.1-23.9,0-35.9
		c0-2.5-0.2-5.1,2.4-6.7C244.5,222.3,246.2,222.3,248,222.3z"/>
	<path class="st67" d="M236.9,270.8c-2,0-4,0-6-0.1c-1.6-1.6-1.5-3.6-1.5-5.6c-0.1-12.2-0.1-24.3,0-36.5c0-2,0.1-4,1.4-5.7
		c6.9-0.9,7.7-0.4,7.7,6.3c0.1,11.8,0.1,23.6,0,35.4C238.5,266.8,238.7,269.1,236.9,270.8z"/>
	<path class="st68" d="M230.8,223.1c0,15.9,0.1,31.7,0.1,47.6c-2,0-4.1,0-6.1,0c-0.5-0.5-0.8-1-1-1.6c-0.4-15.2-1.3-30.3,0.4-45.5
		c0.2-0.2,0.4-0.5,0.6-0.7c1.7,0,3.4,0,5.1,0C230.4,222.6,230.7,222.7,230.8,223.1z"/>
	<path class="st69" d="M224.9,270.1c0.1,0.2,0.1,0.4,0,0.7c-6.9,0-13.8,0.9-20.6-0.5c1-1.4,2.5-1.4,4-1.6c3.1-0.1,4.3-1.8,4.3-4.8
		c0-11.4,0-22.9,0-34.3c0-3.2-1.2-5.1-4.5-5.1c-1.2-0.2-2.4-0.4-2.9-1.7c6.6-0.5,13.2-1.1,19.8,0.2c0,0,0,0.4,0,0.4
		c-3.6,1.4-4.6,4.1-4.5,7.9c0.2,10.1,0.2,20.3,0,30.4C220.3,265.4,221.3,268.3,224.9,270.1z"/>
	<path class="st70" d="M208,269.9c-1.3,0.1-2.5,0.2-3.8,0.3c-2.3-0.9-1.8-3-1.8-4.7c-0.1-12.6-0.1-25.2,0-37.8c0-1.9-0.7-4.6,2.6-5
		c1,0.2,2,0.3,2.9,0.5c1.7,1.7,1.6,3.9,1.6,6.1c0.1,11.6,0.1,23.1,0,34.7C209.6,266,209.6,268.2,208,269.9z"/>
	<path class="st71" d="M253.8,270.8c0-14.6,0-29.1,0.1-43.7c0-1.7,0-3.3-0.8-4.8c6,0,11.9,0,17.9,0c0,0.2,0.1,0.5,0.1,0.7
		c-0.2,0.2-0.4,0.4-0.6,0.6c-1.9,1-3.9,0.7-5.9,0.8c-2.9,0.1-4.1,1.6-4.1,4.4c0,11.7,0,23.5,0,35.2c0,2.8,1.2,4.4,4.1,4.4
		c2,0.1,4.1-0.2,5.9,0.9c0.2,0.2,0.4,0.4,0.6,0.6c0,0.2-0.1,0.5-0.1,0.7C265.3,270.8,259.6,270.8,253.8,270.8z"/>
	<path class="st72" d="M230.8,223.1c-0.3,0-0.6-0.1-0.8-0.2c4.2-1.7,8.5-0.5,12.8-0.6c-1.3,3.4-0.6,6.9-0.6,10.3
		c-0.1,12.7,0,25.5,0,38.2c-1.7,0-3.5,0-5.2,0c0-14-0.2-28,0.1-42C237.2,223.9,235.6,222.1,230.8,223.1z"/>
	<path class="st73" d="M282,269.9c0-15.6,0-31.1,0-46.7c5.2-1.1,6-0.6,6.4,4.2c0.4,4.3-0.2,8.6-1.4,12.8c-1.4,6.3-1.4,12.5-0.1,18.8
		c0.8,1.9,0.6,3.9,1,5.8C288.9,269.9,287.5,271,282,269.9z"/>
	<path class="st74" d="M276.8,280.1c-5.2,7.5-13.4,11.1-20.9,15.6c0-0.2,0-0.3,0.1-0.5c2.7-8.4,2.7-8.4-5.8-8.2
		c-1-2.5-0.4-4.7,0.9-6.9C259.7,280.1,268.2,280.1,276.8,280.1z"/>
	<path class="st75" d="M287,240.2c0-4.1-0.3-8.2,0-12.3c0.3-4-1.1-5.5-5-4.7c-0.1-0.2-0.1-0.5-0.2-0.7c1.2-0.1,2.3-0.3,3.5-0.2
		c2.3,0.1,5.4-0.5,6.2,2c0.9,2.8,1.5,6.1-0.7,9c-1.1,1.4-2.6,2.7-1.9,4.8c0,0,0.1-0.1,0.1-0.1C287.3,237.7,288.2,239.9,287,240.2z"
		/>
	<path class="st76" d="M282,269.9c3.7,0.7,5.5-0.6,5-4.6c-0.3-2.1,0-4.2,0-6.3c1.1,2.3,1.9,4.8,3.3,7c2.2,3.4,1,4.7-2.5,4.9
		c-1.9,0.1-3.9-0.1-5.8-0.1C281.9,270.4,281.9,270.1,282,269.9z"/>
	<path class="st77" d="M289.9,261c4.1,0.6,8-1.9,12.3-0.8c-3.5,2.5-8.2,1-11.4,3.8C289.7,263.3,290.1,262.1,289.9,261z"/>
	<path class="st78" d="M251.1,280.2c-0.3,2.3-0.6,4.6-0.9,6.9c-0.5,1.3-1,2.6-1.6,4.1c-1-1-0.3-2-0.4-3c1.2-2.3,0.4-4.9,1-7.3
		C249.8,280.6,250.5,280.4,251.1,280.2z"/>
	<path class="st79" d="M288.1,248.8c4.1,0,8.1,0,12.2,0c0,0.4,0,0.9,0,1.3c-4.1,0-8.2,0-12.2,0C288,249.7,288.1,249.3,288.1,248.8z"
		/>
	<path class="st80" d="M289.9,239.2c3.2-0.3,6.1,0.5,10.1,2.9c-4.3-1-7.3-0.5-10-2.1C289.9,239.7,289.9,239.4,289.9,239.2z"/>
	<path class="st81" d="M83.4,305c-0.8,2.3-2.9,4.1-2.5,6.9c-4.9,1.8-8.2-1.7-11.9-3.7c1.3-2.6,1.7-5.8,4-7.9c3.2-1,5.6,1.8,8.6,2
		C82.7,302.8,83.5,303.6,83.4,305z"/>
	<path class="st82" d="M79.2,313.9c1.2,3.9-2.1,5.6-4,8c-3.3,0-6.2-0.9-8.2-3.7c1.4-2.9,2.8-5.8,6.1-7
		C75.8,310.5,77.5,312.2,79.2,313.9z"/>
	<path class="st83" d="M66,329.9c-0.7,0-1.4-0.1-2.1-0.1c-0.1-3.9-0.2-7.7,4.1-9.7c2.6-0.3,4.4,1.1,6,2.9
		C72.7,326.9,69.2,328.2,66,329.9z"/>
	<path class="st84" d="M82.4,303.7c-3.1-1.1-6.2-2.3-9.4-3.4c-1.3-0.7-3.1,0.2-4.2-1.2c4.3-2.4,7.7,1.5,11.7,1.8
		c-0.3-2.6-1.3-4.8-2.4-6.9c0.4-1.1,0.4-2.9,2.4-1.6c1.4,2,2.2,4.3,2.9,6.7C84,300.7,84.4,302.5,82.4,303.7z"/>
	<path class="st85" d="M79.2,313.9c-2.1-0.9-4.1-1.8-6.2-2.6c-2.2-1-5-1.1-7.5-3.9c1.8,0.4,2.7,0.6,3.5,0.8c4,1.2,7.9,2.5,11.9,3.7
		C81.1,313.2,79.5,312.9,79.2,313.9z"/>
	<path class="st86" d="M74,323c-2-1-4-1.9-6-2.9c-1.5-0.5-2.9-1.1-4.4-1.7c1.2-0.8,2.3-0.4,3.3-0.3c2.7,1.2,5.5,2.5,8.2,3.7
		C74.8,322.3,74.4,322.7,74,323z"/>
	<path class="st87" d="M171,390.1c-3.3,0-6.6,0-9.9,0c-1.7-1.9-1.7-4.3-1.7-6.6c0-28.8,0-57.6,0-86.4c0-2,0-4,1.1-5.8
		c1.1-1.3,2.6-1.2,4.1-1.2c7.7,0,15.4-0.2,23.1,0.1c0.6,0.1,1.2,0.5,1.6,1c0.1,0.7-0.1,1.2-0.7,1.5c-3,1.3-6.1,0.7-9.2,0.8
		c-6.5,0.6-6.7,0.7-6.7,7.1c0,27.1,0,54.3,0,81.4C172.6,384.8,173,387.7,171,390.1z"/>
	<path class="st88" d="M134,390.1c-3.3,0.5-6.6,0.4-9.9,0c-2.1-2.4-1.7-5.3-1.7-8.1c0-27.1,0-54.2,0-81.4c0-6.2-0.1-6.2-6-7.5
		c-0.6-0.2-1.1-0.6-1.6-1.1c-0.2-0.7,0.1-1.2,0.7-1.6c6-0.5,12-1.1,18,0.3c2.1,1.9,2.1,4.5,2.1,6.9c0.1,28.8,0.1,57.5,0,86.3
		C135.6,386.1,135.5,388.3,134,390.1z"/>
	<path class="st89" d="M97,390c-3.3,0.4-6.6,0.4-9.9,0c-1.7-1.9-1.6-4.3-1.6-6.6c0-28.4,0-56.9,0-85.3c0-2.1-0.1-4.4,1.3-6.2
		c2-1.6,4.4-1.2,6.7-1.1c3,0,4.6,1.5,5,4.5c0.2,1.3,0.2,2.6,0.2,4c0,27.9,0,55.8,0,83.7C98.7,385.3,98.9,387.9,97,390z"/>
	<path class="st90" d="M97,390c0-30.2,0-60.4,0-90.6c0-8.1,1.1-7.3-7.5-7.4c-0.8,0-1.7,0.1-2.5,0.1c-2.2,1.4-4.3,1.7-6.2-0.4
		c0.5-1.6,1.9-1.6,3.3-1.6c9.3-0.1,18.6-0.1,27.8,0c1.2,0,2.3,0.1,3.1,1.2c0,0.2,0,0.4,0,0.5c-0.2,0.3-0.4,0.7-0.7,0.7
		c-7,0.7-6.8,5.6-6.7,10.8c0.1,26.2,0.1,52.4,0,78.6c0,2.8,0.4,5.7-1.6,8.1C103,390.4,100,390.4,97,390z"/>
	<path class="st91" d="M189.2,292c0-0.2-0.1-0.5-0.1-0.7c5.9-2.4,11.9-1.3,17.9-0.6c0.5,0.5,0.9,1,1.1,1.6c0.7,2.1,0.6,4.3,0.6,6.4
		c0,27.7,0,55.5,0,83.2c0,2.8,0.4,5.7-1.7,8.1c-3,0-5.9,0-8.9,0c-2-2.4-1.6-5.3-1.6-8.1c0-25.8-0.2-51.6,0.1-77.3
		C196.6,298.5,196.5,293.3,189.2,292z"/>
	<path class="st72" d="M134,390.1c0-30.8,0-61.7,0-92.5c0-2.1,0.4-4.3-0.9-6.3c3.4-2.1,6.8-1.6,10.3-0.3c1.4,2.1,1.2,4.4,1.2,6.7
		c0,28.4,0,56.8,0,85.2c0,2.5,0.1,5-1.6,7.1C140,390.5,137,390.5,134,390.1z"/>
	<path class="st92" d="M161,291.2c0,32.9,0,65.9,0,98.8c-3,0.5-6,0.5-9,0c-1.7-1.9-1.7-4.3-1.7-6.6c0-28.7,0-57.5,0-86.2
		c0-2.1-0.1-4.3,1.2-6.3C154.8,289.6,157.9,289.3,161,291.2z"/>
	<path class="st93" d="M152.1,291.2c0,33,0,65.9,0,98.9c-3,0.5-6,0.5-9.1,0c0-32.9,0-65.9,0-98.8
		C146.1,289.3,149.1,289.4,152.1,291.2z"/>
	<path class="st94" d="M106,390c0-30.4,0-60.7,0-91.1c0-8-0.4-6.8,7-6.9c0.7,0,1.3-0.1,2-0.2c0,0,0.1,0.2,0.1,0.2
		c1.7,1.9,1.5,4.3,1.5,6.6c0,28.2,0,56.5,0,84.7c0,2.3,0.1,4.7-1.6,6.6C112,390.4,109,390.4,106,390z"/>
	<path class="st95" d="M171,390.1c0-29.7-0.1-59.5,0-89.2c0-9.9-1.9-8.9,8.9-8.8c1.8,1.9,1.7,4.3,1.7,6.6c0,28.3,0,56.5,0,84.8
		c0,2.3,0,4.7-1.6,6.6C177,390.5,174,390.5,171,390.1z"/>
	<path class="st96" d="M189.2,292c8.8,0.1,8.8,0.1,8.8,9.1c0,29.6,0,59.3,0,88.9c-3,0.4-6,0.4-9,0c-1.5-1.8-1.6-4-1.6-6.1
		c0-28.6,0-57.1,0-85.7c0-2.1-0.1-4.4,1.5-6.1L189.2,292z"/>
	<path class="st97" d="M206.9,390c0.1-32.6,0.1-65.2,0.2-97.8c6.7-3.4,10.4-1.5,10.5,5.8c0.1,28.8,0.1,57.6,0,86.4
		c0,2-0.1,4-1.6,5.6C213,390,209.9,390,206.9,390z"/>
	<path class="st98" d="M115,390c0-32.7,0.1-65.3,0.1-98c11.1-0.2,8.9-0.9,8.9,8.8c0.1,29.7,0.1,59.5,0.1,89.2
		C121.1,390.5,118.1,390.5,115,390z"/>
	<path class="st99" d="M188.9,292.1c0,32.6,0.1,65.3,0.1,98c-3,0.4-6,0.5-9,0c0-32.7,0-65.3,0-98
		C182.9,292.1,185.9,292.1,188.9,292.1z"/>
	<path class="st100" d="M216,389.9c0-29.8,0.1-59.6-0.1-89.4c0-9.1,2.2-8.6-8.9-8.4c-0.1-0.2-0.1-0.5-0.2-0.7
		c5-2.7,10.3-1.7,15.3-0.6c2.7,0.6,2.8,3.7,2.8,6.3c0,12.3,0,24.6,0,36.9c0,16.6,0,33.2,0,49.8c0,2.2,0.7,4.8-2.1,6.1
		C220.5,390.1,218.3,390.5,216,389.9z"/>
	<path class="st101" d="M81.2,291.8c1.9,0.1,3.9,0.2,5.8,0.4c0,32.6,0,65.2,0,97.8c-8.1,0.6-8.1,0.6-8.1-7.4c0-18.3,0-36.6-0.1-54.9
		c0-4,0.2-7.9,2.3-11.5c2-3.4,2.2-7.3,2.3-11.1c-0.3-0.5-0.7-0.9-1-1.3c2-4.5-2.6-7.6-2.5-11.7C80.3,291.6,80.7,291.6,81.2,291.8z"
		/>
	<path class="st6" d="M81.2,291.8c-0.4,0.1-0.9,0.1-1.3,0.2c-0.6,0.7-1.1,1.3-1.7,2c-0.5-1-1.1-1.9-1.6-2.9
		c3.5-1.9,7.2-2.1,11.1-2.1c43.2,0.1,86.5,0,129.7,0.1c7.3,0,8.6,1.4,8.6,8.8c0,28.8,0,57.5,0,86.3c0,2.5,0.3,5.1-2,6.8
		c-0.4-0.4-0.8-0.7-1.2-1.1c1.3-1.7,1.2-3.7,1.2-5.7c-0.1-28.8-0.2-57.5-0.1-86.3c0-4.9-1.4-7.2-6.5-6.7c-3.5,0.3-7,0.2-10.4,0.2
		c-6,0-11.9-0.1-17.9-0.1c-9.3,0-18.7,0-28,0c-3,0-5.9,0-8.9,0c-3,0-6,0-9,0c-3.3,0-6.7,0-10,0c-6,0-12,0-18.1,0
		C103.7,291.3,92.5,290.5,81.2,291.8z"/>
	<path class="st102" d="M188.3,541c-0.8,1.3-1.6,2.6-2.3,3.9c-4,0.6-6.1-2.6-8.8-4.4c-2.9-1.9-5.3-4.3-7.6-6.9
		c-1.9-2.9-2.1-6-2.3-9.4c-0.4-7.8,0.2-15.5,0.5-23.2c0.1-1.6,0.2-3.2,0.4-5.1c3.5,1.7,7.1,2.3,10.8,2.1c1,2.6,0.5,5.3,0.1,7.8
		c-1,5.4-0.6,10.9-0.6,16.3c0,5.6,2.8,10.1,6.4,14.1C186.2,537.7,187.9,538.9,188.3,541z"/>
	<path class="st103" d="M152.2,528.1c1.6-4.1,1-8.3,0-12.4c-0.3-3,0.4-6.1-1.1-8.9c-0.3-2.9-0.7-5.8-1-9.1c2.1,0.4,3.9,0.7,5.6,1
		c2.9-1,4.7,0.4,5.1,3.1c1.3,9,3.8,18,1.6,27.2c-1.2,5.1-4,9-9.6,10C145.3,535.3,145.3,535.3,152.2,528.1z"/>
	<path class="st104" d="M188.3,541c-7.3-5.3-11.7-12.1-11.4-21.6c0.3-7.2,0.1-14.4,2-21.5c1.9-0.6,3.7-1.3,6.4-2.1
		c-0.7,10-1.3,19.5-2,29c-0.1,1.7-1.2,3.5,0.4,5.1c3.4,2.7,6.8,5.3,10.2,8C192.1,539,190.2,540,188.3,541z"/>
	<path class="st104" d="M152.8,539c8.3-5.2,10.4-12.8,8.5-22.1c-0.9-4.2-0.8-8.5-1.3-12.7c-0.3-2.6-0.6-5.4-4.3-5.5
		c3.2-1.3,6.9-0.2,10-3.3c0.4,6.5,0.8,12.2,1.1,17.9c1.3,6.7,2.3,13.4-0.4,20c-2.7,3.1-5,6.6-9.4,7.6
		C154.9,541.8,153.9,540.3,152.8,539z"/>
	<path class="st105" d="M168.2,478c-1-4.1,0.5-5.7,4.8-5.3c5.1,0.4,12.1-1.6,14.8,1.1c2.7,2.6-1.1,9.4-1.5,14.4
		c-0.3,3.5-0.6,6.7-5.2,7c-2.9-1.3-2.7-4.1-2.3-6.4c0.7-4.3-0.3-6.8-5.1-7.1C171.5,481.4,169.2,480.4,168.2,478z"/>
	<path class="st106" d="M168.2,478c3.1,1.5,6.2,3.1,9.8,2.9c2.8-0.1,3.4,1.2,2.7,3.7c-1,3.5-1.2,7.1,0.5,10.5
		c-2.1,1.5-4.4,0.9-6.7,0.8c-4.4-0.2-7.1-2-6.5-7.1C168.3,485.2,168.1,481.6,168.2,478z"/>
	<path class="st107" d="M164.9,533.8c3.2-4.3,1.7-9.2,1.9-13.9c0.1-2.2-0.1-4.3-0.1-6.5c0.9-4.1-0.8-8.4,1.1-12.4
		c0.3,7.5,0.7,15,0.7,22.5c0,3.8,0.6,7.2,2.5,10.4c0.3,0.2,0.4,0.5,0.3,0.8c0,0.3-0.1,0.4-0.2,0.4c-1.3,0.6-2.2-0.2-3-1
		c-0.4,0-0.8,0-1.2,0c-0.5,0.7-1,1.6-2.1,1C164.6,534.5,164.6,534.1,164.9,533.8z"/>
	<path class="st106" d="M244.9,186.1c1.7,2.7,1.8,5.9,2.1,8.9c-1.3,3.4-3.5,6.3-6,9c-2.4,3.6-5.1,6.9-9.1,8.9
		c-1.5,0-3.1-0.1-4.6-0.1c-0.6-0.7-0.1-1.2,0.3-1.8c2.6-2.8,5.8-5,8.6-7.5c2.6-2.3,4.4-4.9,4.9-8.4c1.4-4.2-3-5.7-4.1-8.7
		c-4.1-6.8-5.7-6.7-10.1,0.9c-0.3,0.9-0.6,1.7-0.9,2.6c-1.2,2.8-0.8,5.4,0.8,7.9c1.4,2.2,1.9,5.1,0.1,6.9c-2.4,2.4-2.8,5.2-3.2,8.2
		c-6.6,0-13.2,0.1-19.8,0c-1,0-2.9,1-2.9-1.2c0-1.2,1.3-2.7-1.1-2.7c-0.6,0-1.5,0.2-1.8,0.6c-1,1.6,1.7,1.7,1.4,3.1
		c-2.1,0.6-4.8,0.1-5.8,2.9c-0.4,1-0.3,2.1-0.7,3.1c-0.3,5.6-0.3,11.3,0,16.9c0.2,4.7-1.8,7.2-5.5,9.6c-7.4,4.9-15.8,6.9-23.9,9.9
		c-4.6,1.2-9.2,2.5-13.7-0.1c-8.8-0.2-17.5-1.5-25.9-4.2c-5.7-3.1-5.7-3.1-3.8-9.3c1.3-4.3,1.7-8.7,3.1-13c0.2-0.6-1.1-0.5-0.4-0.3
		c0.1,0,0.1,0.1,0.1,0.2c-0.7,3.2-2.8,4.5-5.9,4.5c-0.1-2.6,1.8-5.2,0.6-7.7c-1.2-2.4-1.2,0.2-1.7,0.7c-2.1,3.3-5.2,5.1-8.9,6.1
		c-5,0.6-8.4-2.6-11.7-5.5c-2.4-2.1-4.4-4.4-7.5-5.6c-1.1-0.6-1.9-1.6-2.4-2.7c-0.3-0.7-0.4-1.4-0.4-2.1c0.2-2.4-1-3.9-3-5.2
		c-6.1-3.8-6.3-5.4-1.7-10.9c0.4-0.2,0.9-0.3,1.3-0.2c1.5,0.9,1.3,2.6,1.6,4c0.3,2.3,1.2,4.6,3.7,4.7c2.7,0.2,1.4-2.9,2.4-4.2
		c0.6-1.2,1.9-1.7,2.2-3.1c0.1-0.6,0.1-1.3,0.1-1.9c0.1-2.3-1.4-4.5-0.3-6.8c3.7-1.6,4.5,3.2,7.4,3.3c1.1,0.9,1.2,1.9,0.6,3.1
		c-0.5,0.7-1.6,0.9-2,1.8c1.4,0.6,2.6-0.3,3.8-0.1c1.3,0.2,2,1,2.3,2.2c0.1,1-0.7,2.2,0,2.8c0.9,0.7,1.6-0.7,2.5-1
		c1.6-0.5,3.2-0.1,4.8-0.1c3.4,1,6.2,3.5,10.3,3.3c7.4-0.3,11.3-3.2,12.8-10.5c0.3-1.6,0.8-3.2,0.7-4.9c0.6-4.2-1.7-8.3-0.7-12.5
		c1.5-5.1,0.8-6.3-4-8.1c-1.8-0.6-4.1-0.2-5.2-2.3c0.5-1.5,1.9-1.9,3.2-1.8c5,0.6,10,0.8,14.9,2.3c1.2,0.7,1.6,0,1.9-1.1
		c0.3-1.3,0.3-2.9,2.1-3.3c3.1,0.4,3.2,4.6,6.3,5c1-1.6-0.9-4.3,1.9-5.3c1.3-0.1,2.4,0.4,3.5,0.9c4.3,1.8,9,2,13.5,2.7
		c1.4,0.2,3-0.3,4.1,1.2c0.2,1-0.4,1.6-1.1,2c-3.8,2.1-2.9,4.5-0.6,7.2c-2.4,14,2.1,21.8,14.9,25.4c1.3,0.2,2.5,0.7,3.8,1
		c8.4,2,11,0.9,15.8-6.8c1.2-1.7,2.2-3.5,2.8-5.4c0.2-0.7,0.4-1.4,0.7-2c1-1.6,1.3-3.9,3.9-3.9c2.9,1.9,1.8,5.8,4.2,7.9
		c0.9-7.8-0.4-16.7,9.5-20.4c1.2-0.7,2.2-2.3,3.9-1C238.3,177.4,242.3,181.2,244.9,186.1z"/>
	<path class="st108" d="M192.8,218.1c0.4-0.8,0.7-1.6,1.1-2.4c0.1,0.5,0.1,0.9,0.2,1.3c-0.1,20.3,1.6,40.7,1,61c0,0.3,0,0.6,0,0.9
		c-1.4,0.5-2.4-0.3-2.7-1.4c-1.3-6.4-4.5-12.4-4.9-19c3.1-0.6,3.1-0.6,4.5,3.4c0.2-3.4-1.9-5.1-5-5.9c-0.1-0.1-0.3-0.1-0.4-0.3
		c-0.2-0.4-0.7-0.3-0.7-0.2c2.2,4.4,0.3,8.7-0.6,13c-1.1,2.5-2.3,5-5.2,5.9c-1.9,0.1-3.4-0.6-4.4-2.4c0-0.8,0.4-1.3,1.2-1.6
		c6.1-2.3,7.7-11.4,2.8-16c-1.2-0.6-3.4-0.4-2.6-2.8c2-2,4.7-2.3,7.2-3.1c6-2.1,8.1-5,8.2-11.4C192.6,230.7,192.2,224.4,192.8,218.1
		z"/>
	<path class="st109" d="M228,212c-0.2,0.3-0.4,0.5-0.6,0.8c-1.2,0.1-2.3,0.1-3.5,0.2c-0.7-2.7-3.4-5.5,1.5-7.6
		c2-0.9,2.6-4.1,0.7-6.5c-2.4-3-2.8-6.3-1-9.7c2,1.8,4.7,1.7,7,2.7c0.4,2-1.5,2.1-2.5,2.8c-0.9,0.6-1.5,1.4-0.9,2.4
		c2,3.9,1.3,7.3-1.6,10.4c-1.8,1.9-0.2,2.4,1,3.3C228.3,211.2,228.3,211.6,228,212z"/>
	<path class="st110" d="M231.9,212.9c2.8-3.1,5.6-6.4,9.1-8.9c0,0.7,0.1,1.4,0.1,2C237.9,208.2,237.2,213.5,231.9,212.9z"/>
	<path class="st111" d="M306.9,229.2c0,1.1,0.1,2.2-1,2.8c-1.4-0.1-2.4-1.5-4-1c-1.5-1.1-1.7-3.1-0.7-3.8
		C303.4,226,305.1,228.2,306.9,229.2z"/>
	<path class="st112" d="M75.2,185.9c-2.3-5.7-5.3-11.3-4.1-17.9c3.1,1.4,3.2,5.1,5.5,7.1c1.7,1.6,2.5,1.4,2.9-0.8
		c0.5-2.3,0.3-4.6,0.3-7c0-3.3-0.3-6.6,2.1-9.5c1.9-2.3-1.4-5.6,1.4-7.8c4.9,2,4.1,9.2,9.6,10.6c0.4,0.3,0.7,0.7,0.9,1.1
		c0.4,1.8,1.3,3.4,2.1,5c0.9,1.6,1.8,3.3-0.2,4.8c-3.1,0.8-4.5-1.3-5.9-3.4c-1.4-2-1.8-4.5-2.9-6.9c4.1,13,4.5,26.1,4.2,39.3
		c-1.1,2.8-3.1,2.3-4.7,0.7C81.8,196.8,77.5,192.1,75.2,185.9z"/>
	<path class="st113" d="M71.9,132.9c0.3-1.2,0.6-2.4,0.9-3.6c-0.9-2.7-0.8-5.5-0.2-8.3c1-5,2.3-9.9,3.1-15c0.3-2.1,1-4.2,2.3-5.9
		c1-1.2,2.2-2,3.9-1.7c1.8,0.4,2.2,1.9,2.4,3.4c0.5,2.9-0.1,5.9,0.4,8.9c-1.3,8.4-2.5,16.8-3.7,25.3c-2,9.1-2.5,18.4-2.6,27.7
		c0,2.7,1.1,7-2.1,7.4c-3.7,0.4-4.3-4.3-4.6-7.1C70.5,153.6,69.2,143.2,71.9,132.9z"/>
	<path class="st3" d="M57,197c1.6-3.3,3.3-6.7,4.9-10c2.2-2.8,3.3-6.4,6.7-8.9c0.2,1.4,0.4,2.6,0.6,3.7c2.1,1.5,0.8,3.2,0.2,4.9
		c-1.8,5.4-5,10.5-4.3,16.6c0.7,3.8,3,6.8,5.3,9.8c0.7,0.8,1.6,1.5,2.6,2c2.6,1.6,5.6,1.8,8.4,2.9c0.5,0.2,0.9,0.4,1.3,0.7
		c4.6,5.4,3.8,8.1-2.9,9.5c-2.6,0.1-4.5-1.7-6.8-2.3C63.3,218.8,58.7,208.7,57,197z"/>
	<path class="st114" d="M71.9,132.9c-1.2,6.2-1.2,12.5-0.7,18.7c0.5,6.5,1.2,13.1,4.7,19.2c1.8-1.8,1.1-3.7,1.1-5.4
		c-0.2-9.5,0.9-18.8,2.1-28.1c0.1-0.9,0.3-1.6,1.2-2c2.4,3.8-0.8,8.6,2.1,11.8c0.5,1.1,1.2,0,0.7,0.4c-0.1,0.1-0.3,0.1-0.3-0.1
		c-0.8-1.7-2-3.4-0.9-5.5c0.9-0.7,1.9-0.7,2.9-0.4c3.1,6.1,7.9,11.4,9.9,18.1c-0.1,0.8-0.4,1.5-1.3,1.6c-4.3,1.9-5.2-2.2-6.4-4.3
		c-1.1-2-2.1-4-3.5-6c-0.7,1.7-0.4,3.2,0.6,4.5c0.5,0.7,1.1,1.6,0.3,2.2c-5.1,3.1-2.7,8-3.2,12.2c-0.1,1,0,2,0,3
		c0,2.2-0.2,4.9-2,5.7c-2.4,1-2.5-2.4-4-3.5c-2.4-1.8-2.8-4.6-3.9-7C69.6,156.3,68.1,144.5,71.9,132.9z"/>
	<path class="st115" d="M81.7,219.1l-0.3,0.1l-0.3-0.1c-2.6-2-5.9-2-8.9-3.2c-1-0.2-1.7-0.7-2.1-1.6c-1.9-3.6-4.1-7-6.1-10.5
		c-1-6.4,1.8-11.9,4.3-17.4c0.7-1.5,1.4-2.8,0.9-4.5c0.8,0.4,0.7-3,2-0.4c0.9,1.9,1.9,3.7,2.9,5.6c2.7,2,4,5.1,5.7,7.9
		c0.8,1.3,0.8,2.6-1.3,2.6c-1.9-0.8-3.4,0.3-4.7,1c1.3-0.5,2.8-1.6,4.7-0.9c1.4,0,2.3,0.5,2.1,2.1c-0.7,1.3-1.5,2.6-2.3,3.8
		c-1.7,2.7-0.7,5.7,2.4,6.5c3.4,0.9,5,2.9,5.4,6.1c0,0.7,0,1.3,0,2C85.1,220.9,83.2,219.4,81.7,219.1z"/>
	<path class="st116" d="M84.1,111.1c-1.9-2.3-0.5-5.1-1-7.6c-0.3-1.5,0.9-3.7-1.5-4.1c-1.9-0.3-3,1.3-3.4,3
		c-1.9,8-5.2,15.7-5.2,24.1c0,1-0.1,2-0.2,3c-3.8-5.5,0.6-10.6,0.6-16c0-1.4,0.6-2.9,0.9-4.3c1.3-10,5.5-18.9,11.5-26.9
		c1.4-1.9,3.7-4.6,6.1-2.8c2.5,1.9,0.9,4.8-1.4,7.2c1.9-1,3.3-1.5,4.7-1.8c0.5,0,0.9,0.2,1.2,0.6c0.6,2.4-1.2,4-2.3,5.7
		c-1.5,2.4-2.7,4.9-3.2,7.6c-0.3,0.9-0.7,1.7-1.1,2.5c-1,2-2.1,3.9-2.7,6.1c-0.1,0.4-0.3,0.8-0.5,1.3
		C85.9,109.6,86.1,111.5,84.1,111.1z"/>
	<path class="st117" d="M95.8,85c-2.1,2.5-5.2,1.9-8,3c2.3-2.4,5.2-4.3,3.7-8.4c-6.2,2.6-8.8,8.2-11.2,14c-2.1,5.2-4,10.4-6,15.6
		c-0.3,0-0.7,0-1,0c-2.3-2.7,0.1-4.3,1.2-6.2c-3.7,6.1-9,11.2-10.5,18.7c-1.9,5.2-2.9,10.7-5.6,15.6c-0.5,0.4-0.9,0.3-1.3-0.1
		l0.1,0.1c-2.5-3.3,0-6.4,0.7-9.4c2.9-12.6,10-23,18.1-32.8c2.7-3.8,4.6-8.1,7.2-11.9c0.5-0.8,1-1.6,1.6-2.3
		c6.1-2.7,9.6-8.2,13.8-13c1.4-0.8,2.8-1.8,4.6-1.7c0.9,0.5,1.5,1.2,1,2.3l0.1-0.1c-2.5,1.3-4.5,3.1-6.1,5.5
		c4.9,2.2-0.3,4.5,0.1,6.7c1.3,0.8,2.5,2,1.9,3.4C99.3,85.5,97.2,84.5,95.8,85z"/>
	<path class="st118" d="M57,137c0.3,0.1,0.6,0.1,1,0c3.9-6.8,4.9-14.9,9.8-22.1c-2.3,2.2-1.6,5.5-4.6,6.2c1-5.5,5.5-13.2,11.7-19.6
		c0.3,2.8-2.1,4.9-1.5,7.7c-1.1,2.6-2.1,5.3-3.2,7.9c-4.3,10.1-7.4,20.6-13.3,30c-0.6,0.3-1.1,0.7-1.7,1c-1.6-1.8-1.2-3.3,0.4-5
		C57.1,141.5,58.7,139.5,57,137z"/>
	<path class="st119" d="M80.1,200c0-1.4-0.8-2-2-2.2c-0.2-0.2-0.3-0.4-0.3-0.6c0.1-0.2,0.1-0.3,0.2-0.3c1.8,0.1,1.3-0.8,0.7-1.7
		c-1.7-2.6-3.7-5.1-4.7-8.1c0.4-0.4,0.7-0.7,1.1-1.1c3.7,4.6,7.4,9.2,11.3,13.7c0.8,0.9,1.6,3.4,3.7,1.4c1.4-1,2.1-0.2,2.6,1
		c-0.5,1.3-1.1,2.4-2.7,2.3c-2.6,1.5-4.1-0.5-5.9-1.9c-1-0.8-1-3-3.1-2.3l-0.2-0.1C80.7,200.4,80.4,200.4,80.1,200z"/>
	<path class="st120" d="M55.1,167.2c0-0.7-0.1-1.5-0.1-2.2c0-0.2,0-0.5,0-0.5c6.9-2.5,7.5-9,9.7-14.6c0.7-1.8,0.3-4.5,3.3-4.6
		c0,3.9,0,7.8,0,11.6c-1,1.1-2.2,2.1-2.9,3.3C62.7,164,59.8,166.8,55.1,167.2z"/>
	<path class="st17" d="M58.1,156.1c0.2-1.8,2.3-1.7,3-3l-0.1,0.1c1.9-6.1,3.8-12.1,6.1-18.2c2.1,0.6,1.4,1.9,1,3.1
		c-0.4,2-0.8,4-1.2,6c-1.3,5.6-3.6,10.8-5.5,16.2c-1.2,3.3-3.3,3.7-5.8,1.4C56.4,159.7,59.6,159,58.1,156.1z"/>
	<path class="st46" d="M56.8,147c4.7-9.9,7.8-20.4,13.3-30c0.6,1.3,1.8,2.7,0,4c-4.2,7.1-6.5,15-10,22.4
		C59.4,144.8,59.9,147.9,56.8,147z"/>
	<path class="st121" d="M57.3,173.1c1.3,0.5,2.6,1.1,3.8,1.6c2.3,1.5,4.9-0.7,7.3,0.7c-3,1.3-5,4.4-8.8,3.7c-1.9-0.4-4.5-0.5-5.2-2
		C53.5,175.4,56.2,174.5,57.3,173.1z"/>
	<path class="st122" d="M55.9,161.2c2.8,2.6,4.1,0.7,5.1-1.7c2.1-5.1,3.2-10.6,5.9-15.4c0.3,0.4,0.7,0.8,1,1.2
		c-2.3,3.3-2.8,7.2-4,10.8c-1.5,4.5-2.9,9-9,8.9c-0.3,0-0.7,0-1,0C53.5,163.1,53.9,161.7,55.9,161.2z"/>
	<path class="st123" d="M62.2,174c-0.8-0.5-1.7-1-2.5-1.5c-0.6-0.4-1.6-0.7-1.4-1.8c0.2-0.9,1.1-1.3,1.9-1.4c2-0.2,4-0.2,6-0.3
		c0.4,1.3,3.1,1.5,1.8,3.3C66.6,174.1,64.2,173.7,62.2,174z"/>
	<path class="st124" d="M68.1,138.1c-0.1-0.5,0.1-1.2-0.2-1.5c-1.5-1.4-0.9,0.6-1,0.8c-2.3,5.1-3,10.8-6,15.7c1-7.7,4-14.9,6.8-22.1
		C70,133.3,69.4,135.6,68.1,138.1z"/>
	<path class="st125" d="M65.1,167.3c-1.1,0.1-2.2,0.3-4,0.5c2.5-3.1,4.7-5.8,6.8-8.4C67.1,162,70.6,166.2,65.1,167.3z"/>
	<path class="st126" d="M130.2,269.1c-0.3,1.3-0.6,2.6-0.9,3.8c-1.8,7.5-1.8,7.5-9.3,7c3.4-7,6.9-13.8,8.9-21.3
		c1.6-0.8,3.2-1.6,4.8-2.4C134.8,261.1,132.5,265.1,130.2,269.1z"/>
	<path class="st127" d="M168.2,534c0.9,0.4,1.8,0.8,2.8,1.1c4.6,4,9.8,7.3,14.1,11.5c3,2,6.3,3.1,9.9,3.3c2.6,1.6,6.1,2.6,5,6.9
		c-2,1.7-5,0.8-7,2.6c-6.3-3-12.2-6.6-17.9-10.7c-7.1-3.2-7.3-3.7-6.1-11.9C168.8,535.9,167.6,535.2,168.2,534z"/>
	<path class="st127" d="M150.1,555c-4.4,2-9.5,3.2-12.9-0.7c-3.5-3.9,0.6-8,2.3-11.8c0.9-2,2.6-3.7,4.5-6.2c0,3.8-1.6,7.5,2.4,9
		c4.7,1.8,8.3-0.7,11.6-3.5c0.9-1.1,1.6-2.5,3.4-2.3c1.9,1.5,0.6,3-0.1,4.3C158.7,548.7,155.3,552.8,150.1,555z"/>
	<path class="st128" d="M150.1,555c4.3-3.4,8.1-7.3,10.5-12.3c0.4-0.9,1.9-1.8,0.3-2.9c0.2-2.7,2.4-3.4,4.3-4.4
		c0.6-0.5,1.2-1,1.8-1.4c0,0.7,0,1.3-0.1,2C166,551.6,165.5,552.1,150.1,555z"/>
	<path class="st129" d="M169,536.9c-1.7,5.8,2.6,8.7,6.1,11.9c-1.9-0.1-2.9,3.3-5.2,1.6c-2-1.5-2.4-3.9-1.9-6.3
		C168.5,541.7,167.4,539.1,169,536.9z"/>
	<path class="st130" d="M148,543.9c-3.5,0-3.7-2.7-2.6-4.7c1.5-2.8,3.1,0.1,4.6,0.7C150.7,541.9,149,542.7,148,543.9z"/>
	<path class="st131" d="M165.2,535.4c-1.4,1.5-2.8,2.9-4.3,4.4c-1,0.7-2,1.3-3,2c-0.3-0.3-0.7-0.6-1-0.9c2.7-2.4,5.3-4.8,8-7.1
		C165,534.3,165.1,534.8,165.2,535.4z"/>
	<path class="st132" d="M148,543.9c-0.1-1.7,1.6-2.5,2-4c1.2,0.8,2.3,1.6,3.6,2.5C151.9,544.3,150,544.2,148,543.9z"/>
	<path class="st133" d="M177,252.2c1.1,1.3,2.7,0.6,4.1,0.9c-0.2,2.4-2.4,1.9-3.8,2.7c-5.8,1.9-6.7,4-3.8,8.9
		c0.9,2.3,3.9,3.4,3.5,6.4c-0.3,0.3-0.7,0.6-1,0.9c-4.1-2.3-8-4.6-12.3,0.3c-1.3,1.5-3.6-0.9-4.8-2.5c-1.5-1.8-2.8-2.9-4.7-0.6
		c-1,1.1-2.1,2.1-3.2,3.1c-5.3,4.5-9.4,3.7-13.2-2.4c-1.4-4.7-2.2-9.4,1.2-13.8c0.8,0.4,1.5,0.7,2.3,1.1c1.2,2.4-0.2,4.8,0.1,7.3
		c0.2,2,0.6,3.9,2.1,5.4c1,0.8,2.1,1,3.2,0.2c0.8-0.6,1.5-1.3,2.3-1.9c6-5.6,6-5.6,1.1-10.8c0-0.7,0-1.4,0-2.2c4.7-0.1,9.4,0,14-1
		c3.5,0.1,6.5-2,9.9-2.3C175,251.7,176.1,251,177,252.2z"/>
	<path class="st115" d="M117.1,233c2.3-1.5,4.8-2.8,6.7-5.8c0.5,5.6-0.7,10.2-2.4,14.3c-1.7,4.3-1.7,7.2,2.6,9.4
		c-4.2-0.4-7.9-2.2-11.9-4.1C115.8,242.7,115.2,237.4,117.1,233z"/>
	<path class="st134" d="M138.9,256c-1.2,4.7-1.6,9.3,0,14c-2.4,1-3.8,2.8-4.3,5.4c-0.3,1.7-0.7,3.6-2.6,4.5c-1.1,0-2.7,0.9-2.2-1.6
		c0.6-2.7,0.9-5.4,1.4-8.1c0-5.1,1.7-9.7,4-14.1C136.5,256.1,137.7,256.1,138.9,256z"/>
	<path class="st135" d="M143,271.2c-4.3-4.2-3.2-9.1-1.8-14.1c1.6,0,3.2,0,4.8,0.1c3.9,0.1,4.6,2.5,3.8,5.7
		C148.9,266.8,147.3,270.1,143,271.2z"/>
	<path class="st104" d="M143,271.2c1.9-2.5,4.7-4.2,5.5-7.8c0.7-3,0.7-5.1-2.5-6.2c1.3,0,2.6,0,4,0c0.8,0.2,1.5,0.4,2.3,0.7
		c3.9,1.2,4.7,3.9,1.8,6.8c-2,2-3.9,4.1-6,6C146.6,272,144.9,273.1,143,271.2z"/>
	<path class="st136" d="M107.3,231.2c3.5-0.7,5.7-3.7,8.7-5.2c0.3,3.6-3.3,4-4.8,6c-3.8,0.8-7.3,4-11.4,1.2c0.3-0.4,0.6-0.8,1-1
		C102.8,231,105.2,232,107.3,231.2z"/>
	<path class="st137" d="M135.2,256.2c-1.3,4.7-2.7,9.4-4,14.1c-0.3-0.4-0.7-0.8-1-1.2c0.3-4.5,2.6-8.5,3.6-12.9
		C134.2,256.2,134.7,256.2,135.2,256.2z"/>
	<path class="st138" d="M222.9,90.2c2.8,8.7,7.3,16.8,9.2,25.9c1,6.7,2,13.4,2.9,20.1c-0.1,0-0.3,0.1-0.4,0.1
		c-0.5-1.1-1-2.2-1.6-3.3c-0.7-0.4-1-1.1-1.3-1.8c-1-3.2-1.2-6.7-2.5-9.8c-0.2-0.7-0.4-1.4-0.5-2.1c-2.4-12.5-8.6-23.3-15.8-33.5
		c1.7,2.6,3.4,5.3,5.1,7.9c1.7,2.8,3.2,5.8,4.6,8.8c0.6,1.2,1.2,2.4,1.5,3.7c0.5,1.6,1.5,3.7-0.2,4.6c-2,1-2.7-1.5-3.3-2.8
		c-3.2-6.9-6.5-13.8-10.9-20.1c-0.8-1.1-1.5-2.1-1.8-2.4c3.3,4.9,7.5,10.2,9.6,16.8c-0.2,0.8-0.7,1.2-1.6,1.2
		c-9.3-8.9-14.8-19.9-18.2-32.1c0.4-1,1.1-1.2,2-0.6C208.4,76,216.7,81.9,222.9,90.2z"/>
	<path class="st139" d="M233.9,174.1c-1.4,0-2,1.3-3,2c-2.1,0.3-3.9,1.4-5.9,2.2c-2.7,1.1-3.9,2.6-3.3,5.6c0.3,1.6,0.9,4.4-1.1,4.8
		c-2.2,0.5-2-2.4-2.7-3.9c-0.3-0.6-0.4-1.3-0.5-1.9c-0.4-1.7,0.8-3.9-1.4-5.2c-0.2-5,0.9-10.1,0.2-14.9c-1.3-9.5-1.2-19.1-2.3-28.6
		c-1-8-1.3-16.2-3.6-24c-0.4-1.5,0-3,1.1-4.1c0.5-0.4,1-0.5,1.5-0.3c3.2,3.4,3.4,7.8,4.2,12c-0.3,3.6,0.6,7,1.3,10.5
		c0,1.6-0.4,3.3,0.2,4.9c0.2,0.7,0.3,1.4,0.4,2.1c0.1,1.8,0,3.7,0.5,5.4c0.3,2,1.2,3.7,2.5,5.2c0.2,0.7-0.1,1.3-0.6,1.8
		c-1.4,1.2-1,2.8-0.7,4.3c0.1,0.6,0.2,1.3,0.3,1.9c-0.1,1.5,1.2,2.7,1.1,4.3c-1.2,2.5,0.4,5.1-0.5,7.6c-0.2,0.4-0.4,0.8-0.7,1.1
		c0,0.4-0.1,0.8-0.1,1.2c2.5,3.9,6.2,5.4,10.8,4.7C232.6,173,233.5,173.2,233.9,174.1z"/>
	<path class="st140" d="M232.8,131.2c0.1,0.6,0.2,1.2,0.3,1.8c-0.7,1.7-1.3,3.4-2,5.1c-1.1-0.2-1.6-0.9-2-1.8
		c-0.4-1.1-0.6-2.2-1.1-3.3c-1-3.6-3.5-6.6-3.8-10.5c1.1-2.3,3.3-2.9,5.6-3.3c0.1,0.6,0.2,1.1,0.4,1.7c-0.2,3,0.7,5.8,1.4,8.7
		C231.9,131.1,231.9,131.2,232.8,131.2z"/>
	<path class="st141" d="M221.1,166.9c-0.1-0.3-0.1-0.6,0.1-0.9c2-3,6-3.6,7.8-6.8c1.2-1.4,2.5-2.5,4.3-2.9
		C234.4,161.9,228.1,167.3,221.1,166.9z"/>
	<path class="st123" d="M228.1,146c2.2,0,3.1-2.3,4.9-3c4,8.3,3.4,9.9-4.4,13.7c-0.7-2.1,1.2-3.2,1.8-4.8c0.1-0.4,0.2-0.8,0.3-1.3
		c0.7-2.6-3.3-1.8-3-4.1C227.9,146.3,228,146.1,228.1,146z"/>
	<path class="st142" d="M218.1,134.8c-0.1-0.6-0.2-1.2-0.3-1.7c1.3-2.6,2.5-0.6,3.5,0.2c2.4,2.1,4.6,4.5,7.1,6.5
		c0.8,1.3,1.2,2.7,0.6,4.2c-0.3,0.6-0.5,1.3-0.8,1.9c0,0-0.2,0.4-0.2,0.4C222.5,144.3,220.2,139.7,218.1,134.8z"/>
	<path class="st138" d="M231.7,172.8c-5.3,2.7-10.2,0.6-10.8-4.7c2.3-0.4,4.8,0.6,7-1c0.5-0.5,0.9-0.4,1.3,0.1c-0.5,2-3,1.5-4.3,3.5
		c3,0,5.5,0,8.1,0C232.6,171.4,232.2,172.1,231.7,172.8z"/>
	<path class="st143" d="M229,159.1c-1.1,4.1-4.5,5.4-7.8,6.8c0.5-2.6-2.8-5.6,0.7-8c0.5-0.8,1.1-1.4,2.2-1.2c0.8,0.5,1.4,1.2,1,2.3
		C225.4,161.3,225.4,161.3,229,159.1z"/>
	<path class="st144" d="M228.9,144c-0.7-1.3-1.1-2.6-1-4c-1.3-0.7-2.3-1.6-2.9-3c-0.7-1.6-1.4-3.2-0.3-4.9c3.4-0.8,3.8,2.2,5.2,4
		c0.4,0.6,0.8,1.3,1.2,1.9C230.6,140.1,232.3,142.9,228.9,144z"/>
	<path class="st145" d="M225,159c-0.3-0.7-0.6-1.3-1-2c-1.1-1.4-3.1-1.5-4.1-3c0-0.7,0-1.5,0-2.2c4,0.4,8,0.4,12-0.1
		c-0.2,2.2-3.1,2.6-3.4,4.8C227.4,157.5,226.2,158.2,225,159z"/>
	<path class="st112" d="M229.3,167.2c-0.4,0-0.9-0.1-1.3-0.1c1.7-1.4,3.3-2.9,6.1-3.7C232.9,165.9,231.1,166.6,229.3,167.2z"/>
	<path class="st146" d="M86.1,239.8c-0.5-0.6-1.1-1.2-1.6-1.9c-1.3-1.7-3.8-3.9-3-5.4c0.9-1.9,3.8-2.8,6.4-2.7
		c5.9,2.7,10.7,8,17.7,8.3c0.8,0,1.2,0.6,1,1.4c-0.6,1.9-1.5,3.9-3.7,4.4c-1.6,0.4-3.3,0.2-5,0.2c-1.5-2.1-3.1-4.2-5-6.9
		c0.6,2.9,1.1,5.1,1.6,7.6C90.9,244.2,88.8,241.6,86.1,239.8z"/>
	<path class="st147" d="M101.5,232.8c-0.6,0.1-1.1,0.3-1.7,0.4c-4.5-0.4-7.9-2.7-10.7-6.1c-0.3-1,0.2-1.3,1-1.5
		C93.9,228,98.2,229.5,101.5,232.8z"/>
	<path class="st148" d="M90.2,226c-0.4,0.3-0.7,0.7-1.1,1c-0.4,0.3-0.8,0.6-1.1,0.9c-0.3-0.3-0.6-0.6-0.9-1
		c-0.6-2.3-0.7-4.3,2.1-5.2C90.8,222.9,91.4,224.2,90.2,226z"/>
	<path class="st149" d="M229.8,119.1c-1.1,1.8-3,2.5-4.9,3c-4.7-2.8-6.1-8.1-9.3-12.1c-1-1.2-1.2-3.1-2.8-4c-0.4,0-0.9,0-1.3,0
		c-3.4-2.5-3.4-6.8-5.4-10.1c-3.2-7.3-5.7-15-9.6-22c-0.3-1.2,0.4-2,1.1-2.8c2,2.6,3.3,5.6,4.3,8.7c2.8,8.8,9,15.6,14.1,23
		c1.4,1.1,2.4,2.4,2.8,3.9c-0.2-1.6-1.7-3-2-4.8c-3.1-6.8-7.5-13-11.2-19.5c7.5,8.2,12.6,18,17.8,27.7c-2.7-10-7.4-19.1-14.2-28.2
		C216.8,88.2,227.6,104.7,229.8,119.1z"/>
	<path class="st112" d="M196.6,74c5.1,6.5,7.6,14.4,10.6,21.9c-0.7,3.2-1.8,6.2-4.4,8.5c-2.7,0.4-2.8-1.6-3-3.4
		c-0.2-2.6-0.3-5.2-0.7-7.7c0-0.1-0.2-0.2-0.3-0.2c-0.2,0-0.3,0.1-0.5,0.1c-0.5-0.2-0.9-0.6-1-1c-2.8-12.7-12.1-19.7-22.7-25.5
		c-1.9-1.1-4.5-1.7-4.7-4.6c4.5-2.7,8,1.6,12,1.9c8.7,2.7,13.9,8.6,15.7,17.7C199.2,78.7,196.9,76.5,196.6,74z"/>
	<path class="st150" d="M200,556.9c-0.4-3.2-3.6-4.4-5-6.9c3.5-0.9,4.7-3.3,4-7C205.3,549.1,205.4,552.3,200,556.9z"/>
	<path class="st151" d="M190,542.7c1.5-2,3.7-2.3,5.7-1.3c1.6,0.8,1.6,2.9,1.3,4.5c-0.5,2.1-2.3,2-4,1.8
		C191,546.6,188.5,545.8,190,542.7z"/>
	<path class="st131" d="M185.1,546.6c-5.4-3-10.3-6.6-14.1-11.5c0-0.4,0.1-0.8,0.1-1.3c4.8,3.9,9.1,8.6,15,11.1
		C185.7,545.5,185.4,546.1,185.1,546.6z"/>
	<path class="st152" d="M190,542.7c-0.2,2.3,2.2,3.2,2.9,5c-1.9,0.3-3.8-0.2-4.8-1.6C187.3,544.8,188.6,543.5,190,542.7z"/>
	<path class="st153" d="M170,62.2c5.2,4.4,11.9,6.4,16.9,11.2c5.8,5.6,10.9,11.4,11.9,19.9c1.8,3.4,1,7.1,1.6,10.7
		c-2.3,13.6-6.1,26.9-6.5,40.8c-0.1,3.4-2.5,4.5-5.5,4.4c-2.2-0.1-4.2-1-6.2-1.7c-3.7-1.7-6-4.5-7.4-8.2
		c-6.1-13.9-7.8-28.4-4.9-43.4c0.5-2.7,0.3-2.7-1.3-4.9c-1.6,1.9-2.1,4.1-2.2,6.4c-0.3,5.8-1.3,11.6-1.2,17.5
		c-1,11.3-2.5,22.6-3.8,33.9c-0.1,0.8-0.1,1.7-0.2,2.5c-0.4,2.3-0.8,4.7-3.4,5.7c-2.8,1-5.2,0-7.3-1.9c-2.9-2.6-5.1-5.7-6.5-9.3
		c-0.8-2-1.8-3.9-2.6-5.9c-0.4-1-0.6-2.1-0.8-3.1c-0.5-2-1.3-4-1.7-6.1c-0.8-7.2,1.5-14.1,2.3-21.2c0.3-2.2,1.3-4.5,0.3-6.8
		c-2.3-0.1-2.7,1.8-3.2,3.2c-4.3,10.7-6.8,21.8-7.9,33.3c-0.5,5.1-0.2,10.3-2,15.2c-2.9,1.6-4.3-0.3-5.5-2.4
		c-1.7-2.8-3.3-5.9-3.6-9.1c-0.6-5.9-2-11.6-3.5-17.3c-0.2-1.6,0.4-3.2,0.3-4.8c0.9-4.3,2.6-8.3,4.3-12.2c1.3-2.9,2.3-5.9,4.3-8.4
		c2.4-0.6,4.1-1.8,5.2-4.1c2.4-4.9,6.1-9,9-13.7c-4.6,2.6-9,5.4-10.1,11.3c-2.3,5-6.8,8.7-8.2,14.2c-2,4.7-4.3,9.3-4.8,14.5
		c-0.5,1.4-0.6,2.9-1.4,4.2c-3.3,3.1-4.4,7-4,11.5c0,4.6,0.2,9.2-0.1,13.8c-0.1,1.3-0.2,2.9-1.5,3.4c-1.6,0.6-2.8-0.6-3.8-1.8
		c-1.9-2.2-2.8-4.8-3.8-7.4c-0.3-0.8-0.5-1.5-0.7-2.3c-2.2-6.9-4.5-13.7-5.5-20.9c0-0.7,0.1-1.5,0.3-2.2c0.2-1.8,0.1-3.8,1-5.3
		c5.4-8.5,8.4-18.6,16.5-25.4c2.9-2.4,5.9-4.6,9-6.5c-14,8.8-22.9,21.2-26.6,37.4c-0.5,2.3,0.1,4.7-0.6,7c-2,5-1.1,10-0.3,15.1
		c0.9,5.6,2.9,11.2,1.2,17.1c-0.4,0.5-0.9,0.7-1.5,0.6c-1.7-4.1-3.6-8.2-6.7-11.4c-2-2-0.7-4.9-2.3-6.9c-3.3-3.1-2.4-6.9-1.9-10.6
		c0.7-5.4,2.8-10.8,0.9-16.3c0.1-2.5,1.6-4.7,2.1-7.1l0,0.1c1.5-2.3,2.1-4.9,3.1-7.4c0.3-0.6,0.6-1.1,0.9-1.7
		c1.5-3.8,2.9-7.6,6.2-10.3c1.4-1.2,1.7-2.3-0.1-3.4c0-0.3-0.1-0.4-0.4-0.4c0.3-0.5,0.7-1.5,1-1.5c4.6,0.5,1.1-2.1,1.3-3.2
		c1.9-0.3,2.1-2.5,3.6-3.3c8.3-8.3,18.9-13.2,28.4-19.7l-0.1-0.3c10.1,0.5,19.7,5.2,30.1,2.9C163.8,58.8,167,60,170,62.2z"/>
	<path class="st154" d="M99.2,68.2c-4,5.1-7.2,11-14.1,12.8c-2.1,0.9-3.4,2.8-5.1,4.2c-0.3,0.3-0.7,0.6-1.1,0.8
		c-2.5,1.4-4.3,3.8-6.3,5.8c-0.2,0.1-0.4,0.2-0.6,0.3c-1.9,0.5-2.5,2.5-3.7,3.7c-0.3-4.1,3.3-6.1,5-9.1c1-1.7,2.3-3.1,3.5-4.7
		c2.5-1.8,4.9-3.7,7.6-5.3c2.3-1.4,0.2-1.9-0.3-2.7c2.1-1.5,4.6-1.7,6.8-2.8c0.1-1.4,1-1.9,2.2-2.1C95.2,68.6,96.9,66.4,99.2,68.2z"
		/>
	<path class="st155" d="M130.1,57.3c-2.6,3.5-5.9,6.1-10,7.8c-4.6,1.9-8.7,4.6-12,8.4c-1.7,1.9-4,2.8-6.4,3.5
		c0.5-2.1,2.7-2.9,3.5-4.7c2.5-4.9,7-7.3,11.8-9.2c0.7-0.4,1.3-0.8,2-1.1C122.7,60.6,125.8,57.5,130.1,57.3z"/>
	<path class="st156" d="M117,63.1c-3.9,3.1-7.9,6.1-11.8,9.2c-0.2-0.4-0.7-1-0.6-1.3C105.5,67.4,113.4,62.5,117,63.1z"/>
	<path class="st157" d="M99.2,68.2c-2,0.3-3.9,0.6-5.9,0.9c2.6-2.8,6.2-3.4,9.8-4c0.2,0.2,0.3,0.5,0.2,0.7s-0.1,0.4-0.2,0.4
		C101.7,66.9,100.5,67.5,99.2,68.2z"/>
	<path class="st158" d="M98,73.6c0.6-3.5,2.6-5.3,6.1-5.5C102.3,70.2,100.6,72.4,98,73.6z"/>
	<path class="st159" d="M103,66.2c0-0.4,0-0.7,0-1.1c1.5-1.3,3.3-1,6.5-1.2c-2.5,1.9-4,3.1-5.5,4.2C103.7,67.5,103.4,66.9,103,66.2z
		"/>
	<path class="st160" d="M91,71.2c-2.1,1.3-4.1,2.9-6.8,2.8c-1-4.2,3.1-1.1,3.9-2.7C89.1,71.3,90.1,71.2,91,71.2z"/>
	<path class="st161" d="M88.9,222.3c-1.2,1.4-0.4,3.5-1.9,4.8c-2,3-4.4,3-7.2,1.2c6.1-3.2,6.3-4.2,1.8-9.2c1.4-0.3,2.9-0.6,4.3-0.9
		c1.3,0,1.1,1.5,2.1,1.9C88.8,220.6,89.8,221.1,88.9,222.3z"/>
	<path class="st162" d="M80.2,237c-0.1,0.3-0.2,0.6-0.3,1c-2-2.3-5-4.2-3.8-8C79.7,231,79.1,234.5,80.2,237z"/>
	<path class="st163" d="M76.9,95c-7.7,10.4-15.3,20.9-18.4,33.8c-0.7,2.7-1.9,5.3-1.4,8.2c-0.9,0.1-1.1,0.9-1.2,1.6
		c-1.9-5.2,0.9-10.2,0.7-15.4c-0.1-1.7,0.5-3.5,0.3-5.3c0.3-0.1,0.6-0.1,0.9-0.1c4.2-6.8,8-13.8,13.1-20c1.1-1.4,2-3.1,4-3.5
		C75.7,94.3,76.4,94.5,76.9,95z"/>
	<path class="st164" d="M75,95.1c-5.7,6.4-10.5,13.4-14.8,20.8c-0.5,0.9-0.3,2.9-2.4,2.1c3.3-8.8,8.3-16.6,14.1-23.9
		c0.4-0.3,0.7-0.7,0.9-1.1c0.8-1.3,1.8-2.8,3.3-1.5C77.5,92.7,76,94,75,95.1z"/>
	<path class="st165" d="M75,95.1c0.2-1.1,0.5-2.1,0.8-3.6c-1.6,1-2.8,1.8-4,2.6c0.1-0.6,0.1-1.3,0.2-1.9l0,0c2.1-2.6,4.4-5,7-7l0,0
		c1.7-0.6,2.4-3.5,5-2c-2.3,4-4,8.4-7.1,11.9C76.3,95,75.7,95,75,95.1z"/>
	<path class="st166" d="M55.9,161.2c-1.3,1-1.9,2.3-2,3.9c-1.7-1.3-0.2-2.7,0-4c1.4-1.6,2.8-3.3,4.1-4.9c1.7,0.1,2.1,1.2,1.9,2.6
		C59.6,161,57.7,161,55.9,161.2z"/>
	<path class="st57" d="M132.1,279.9c0.8-2.6,1.8-5.2,2.4-7.9c0.6-3,2.4-2.8,4.5-2c4.6,5.4,6.6,5.5,11.6,0.8c1.1-1,2.2-2,3.3-2.9
		c3.2-0.4,4.2,2.1,5.4,4.1c2.2,3.4,4.2,5.4,9.1,4.4c3.8-0.8,8.1,0.5,11.5-2.6c2.3-1.3,3.3-3.5,4.3-5.8c0.8-0.6,1.8-0.4,2.2,0.3
		c1.9,3.6,4.1,7.2,2.6,11.7C170,279.9,151,279.9,132.1,279.9z"/>
	<path class="st167" d="M189,280c-1.5-4-0.9-8.9-4.8-12c1.4-5.1,2.3-10.2,0.7-15.9c0.7,1,1.4,2,2.1,3.1c1.2,0.7,2.1,1.5,1,3
		c1.4,6.3,4.6,12.2,5.2,18.7c0.1,0.9,0.8,1.8,1.8,2.1C193.4,281.3,191,279.8,189,280z"/>
	<path class="st168" d="M271.1,223c3.5-0.4,5,0.6,4.9,4.6c-0.3,12.6-0.3,25.3,0,37.9c0.1,4-1.5,5-5,4.6c0,0-0.3-0.1-0.3-0.1
		c-1.4-1.6-1.5-3.6-1.5-5.6c-0.1-11.9-0.1-23.8,0-35.7c0-2,0-4,1.5-5.6L271.1,223z"/>
	<path class="st94" d="M224.9,270.1c-4.8,0.8-6.1-1.3-6-6c0.3-11.9,0.4-23.8,0-35.7c-0.1-5,1.7-6.2,6-5.1
		C224.9,238.9,224.9,254.5,224.9,270.1z"/>
	<path class="st169" d="M208,269.9c0-15.6,0-31.2,0-46.8c4.9-1.1,6.2,1,6.1,5.8c-0.3,11.7-0.3,23.5,0,35.2
		C214.2,268.9,212.9,271,208,269.9z"/>
	<path class="st170" d="M270.8,223.1c0,15.6,0,31.3,0,46.9c-2,0-3.9,0-5.9,0c-1.6-1.8-1.6-3.9-1.6-6.1c0-11.6-0.1-23.1,0-34.7
		c0-2.1-0.1-4.3,1.6-6.1C266.9,223.1,268.9,223.1,270.8,223.1z"/>
	<path class="st171" d="M264.9,223.1c0,15.6,0,31.3,0,46.9c-4.8,0.9-6.2-1.1-6.1-5.9c0.3-11.7,0.3-23.5,0-35.2
		C258.7,224.1,260.1,222.1,264.9,223.1z"/>
	<path class="st172" d="M125.4,169.9c3.4,0.1,6.5,1,9.3,3c2.6,1.9,2.8,4,0.4,6.2c-1.4,0.3-2.7,0-4.1-0.2c-2.2,0-1.6,1.8-1.6,2.9
		c-0.1,4.8-1.1,9.5-1.4,14.3c-1,2.8-3.2,4.2-5.9,4.9c-4.5,0.6-8.1-0.9-11-4.4c-1.8-3.4-3.7-6.8,0.1-10.3c0.8-0.8-0.5-2.2-0.1-3.3
		c0.8-2.1,0.5-5.2,4.2-4.8c0.6,3.1-1.1,7.2,3.8,8.5c1.6,0.4,3.3,1.4,4.7,0.1c1.8-1.7,1.8-4.2,1.4-6.5c-0.3-2.1-1.9-3-3.9-3.2
		c-1.4-0.2-2.6,0.1-3.9,0.4c-2.9-1.1-4.5,0.8-6.1,2.8c-1.8,0.4-2.8-2.2-4.7-1.1c-2.4,0.9-4.8,1.9-7,3.3c-1.5,0.9-3.1,1.8-5,0.8
		c-2-1.7-1.7-4.2-1.9-6.4c0-1.2-0.3-2.4-0.2-3.6c0.3-1.1,1.2-2.1,2.1-1.4c3.9,2.8,6.3-0.3,9-2.2c5.2,1.7,9.9,1,14.1-2.5
		c0.7-0.6,1.5-0.6,2.3-0.3C121.3,168.7,123.7,168.5,125.4,169.9z"/>
	<path class="st173" d="M213,192.1c-0.1,0.6-0.1,1.3-0.2,1.9c-4.3,3-4-0.7-3.8-3c0.3-3.4,0.1-6.6-1.4-9.6c-0.4-0.7-0.7-1.6-1.6-1.7
		c-1-0.1-1.2,0.9-1.6,1.6c-1.2,2.6-1.6,5.3-1.3,8.2c0.4,3.7-0.4,6.9-3.9,8.9c-0.9,0.4-1.9,0.5-2.9,0.3c-2.2-0.9-4-2.6-6.5-2.6
		c-0.7-0.1-1.4-0.4-1.9-0.9c-0.2-2.4,2.2-2,3.3-2.9c1-0.5,2-1,2.9-1.5c1.7-1.1,2.1-3.1,3.1-4.7c0.2-0.4,0.5-0.8,0.8-1.3
		c3.7-6.5,3.3-7.2-3.8-7.7c-3.9-0.9-5,2.4-6.8,4.5c-1.7,2.1-2.9,2.1-3.3-0.8c0.2-1.7,0.7-3.2,2.5-3.3c-4.3-1.5-8.2,2.1-12.6,1.6
		c-1.6-0.4-3.6-0.5-3.5-2.7c0.1-3.2,2.3-4.8,5.2-5.5c1.3-2.2,4.1-1.8,5.9-3c2-0.4,4-0.1,6-0.1c2.1,0,4.2-0.9,6.3-0.7
		c2.1,0.5,4.2,0.7,6.4,1.1c2.8,0.7,5.4,2.5,8.4,2.2c1,0.1,1.8,0.4,2.7,0.8c0.8,0.5,1.5,1.1,2,2c2.5,3.6,0.5,7.2-0.2,10.8
		C213,186.6,214,189.4,213,192.1z"/>
	<path class="st174" d="M174,179.1c4-2.4,8.3-3.5,13.1-3c0.5,2.2-2.9,2.7-2.1,4.9c-0.6,3.2-1.2,6.4-1.6,9.6c-0.5,4,1.4,7.3,3.5,10.5
		c1,1.5,2.6,2.7,2.3,4.7c-10.9-2.5-17.4-10.2-17.3-20.3C172,183.2,172.9,181.2,174,179.1z"/>
	<path class="st103" d="M95.1,182.9c4-1.7,8-3.3,12-5c2.6,0.2,3.1,2.2,2.3,3.9c-3.2,6.9-2.3,13.5,0.9,20.1c0.4,0.9,0.5,1.9-0.1,2.9
		c-1.3,2.2-3-0.1-4.4,0.4c-1.8,0.8-2.6-0.1-2.9-1.7c-0.2-1.3-1-2.1-2.3-2.2c-1.2-0.3-2.1-0.7-1.5-2.2c0-1,0.2-2.2-0.8-3
		c-3.5-2.7-4.5-6.8-5.4-10.8C92.5,183.7,92.6,182.1,95.1,182.9z"/>
	<path class="st175" d="M189.2,205.9c-7.4-7.3-9.3-15.5-4.2-24.9c0,0.2,0,0.3,0.1,0.5c0.2,0.2,0.4,0.4,0.5,0.7
		c1.2-1.7,2.3-3.4,3.6-5c1.2-1.5,2.6-2.6,4.6-1.2c-2.4,5.1,1.1,8,4.1,11.1c-1,1.7-1.3,3.8-3.1,4.9c-0.2-0.3-0.4-0.5-0.6-0.8
		c-1.4-1.2-2.6-4.5-4.3-3.1c-2.3,2,1,3.4,2.1,5.1c-0.9,1.5-3,0.4-4,1.7c0.8,8.3,1.9,9.4,9.8,9.8c3.8,0.2,6.4-1.8,8.4-4.8
		c1-1.4,1.3-3.4,3.2-4.1c1.6,0.8,1.2,2,0.5,3.2C206.9,208.6,199.6,209.7,189.2,205.9z"/>
	<path class="st176" d="M95.1,182.9c-0.7,0.2-2-0.4-1.4,1.5c1.3,4,2.7,7.9,4.6,11.7c-3.4,0.9-3.9-2.9-6.1-3.8
		c-1.8,2.8,0.8,5.2,0.7,7.8c0,0.7,0,1.3,0,2c-0.9-0.3-1.8-0.7-2.6-1c-0.9-4.2-1-8.7-0.7-12.7c0.8-9.8-3.2-18.8-3.2-28.5
		c2.4,2.3,3,5.3,4.5,7.8c1.2,2.1,2.2,4.2,5.2,3.6c2.3-0.2,4.4-1.3,6.7-1.3c0.2,0.1,0.4,0.3,0.5,0.4c-2.1,3-3.9,6.6-8.2,2.6
		c-0.7-0.7-1.5-0.4-2.1,0.4c-2,1.7,0.6,1.8,1,2.7C94.7,178.1,93.3,180.8,95.1,182.9z"/>
	<path class="st177" d="M210,199c-0.1-1,0.2-2.2-0.8-2.9c-1.7-1.8-3.3-3-5.2,0c-0.8,1.3-2.1,2.4-3.9,2.5c-0.5-0.1-0.8-0.3-1-0.8
		c2.7-2.2,3.9-5.2,2.9-8.4c-1.2-3.9,1-7,1.9-10.4c0.9-3.1,2.6-2.1,3.8-0.4c2.3,3.5,3.6,7.3,2.6,11.6c-0.4,1.6-1.6,4.8,2.6,3.7
		C212.6,196.1,211.4,197.6,210,199z"/>
	<path class="st10" d="M177,252.2c-4.5-0.3-8.3,3.8-13,1.9c7.2-3.6,15.4-4.9,22.2-9.5c3.9-2.6,6.2-5.1,5.9-10.2
		c-0.3-5.4-1.2-10.9,0.6-16.3c0,7.7-0.2,15.5,0.1,23.2c0.2,4.3-2,6.4-5.6,7.6C183.9,250.1,180.4,251.1,177,252.2z"/>
	<path class="st178" d="M238,186.6c1.6,2.7,6.7,3.7,4.2,8.5c-1.9,3.9-2.8,8.5-7.9,9.7c-3.9-2.6-4.8-5.9-3-10.7
		c2.7-2.2,4,2.2,6.6,1.6c-2.4-0.1-3.6-1.7-4.7-3.3c-0.6-3.3-0.5-6.2,3.7-6.8C237.5,185.6,237.9,185.9,238,186.6z"/>
	<path class="st176" d="M141.9,136.2c0.1,0.9,0.2,1.8,0.3,2.8c2.3,10.8,8.1,19.3,17,25.8c0.3,1.2-0.1,1.9-1.2,2.4
		c-1-0.4-1.9-0.8-2.9-1.2c-0.6-0.3-1.3-0.3-1.9-0.8c-2.5-2-4.5-4.6-7-6.7c-0.9,0.9-0.3,3.4-2.8,2.6c-4-5-5.9-10.9-7.2-17.1
		c0.4-1.3,1.1-2.3,2.7-2.2c1,0.8,1.5,1.7,1.4,1.9c0-0.7-0.7-2.3-0.5-4C140.1,138.4,139.3,136.2,141.9,136.2z"/>
	<path class="st179" d="M137,144.1c2.4,5.6,3.8,11.6,7.2,16.8c1.7,1.3,3.5,2.5,2.6,5.1c-1.5,1.2-0.5,3.1-1.1,4.5
		c-0.6,1.3-1.1,2.4-2.7,1.4c-3.1-4.7-6-9.5-6.9-15.2c-0.3-1-0.4-2.1-0.4-3.1c-0.1-1.9-0.2-3.9-0.5-5.8
		C135,146.4,134.4,144.4,137,144.1z"/>
	<path class="st180" d="M110.2,204.7c-1.1-2.7-2.3-5.3-3.3-8.1c-1.9-5-1.2-9.9,1-14.7c0.8-1.6,2.1-3.3-0.9-4.1c2.7-2,2.6,1.6,4,2.1
		c0.6,1.7-0.2,3.2-0.8,4.7c-1.8,4.7-1.5,9.2,0.5,13.7c3.5,7.2,7.1,9.2,14.3,7.8c4.5-1.6,6.7-5.1,7.7-9.5c0.3-1.3,0.2-2.7,1.2-3.7
		c0.7-0.4,1.4-0.5,2,0.1c-1,11.3-5.2,16.1-14.5,16.4C116.9,209.5,113.5,207.3,110.2,204.7z"/>
	<path class="st181" d="M218,181.9c1.7,1.6,2,3.9,2.7,6c0-0.5,0-1,0.1-1.4c0.5-2.8-2.1-7.3,0-7.8c3.3-0.8,6.4-3.3,10.1-2.6
		c-8.4,2.6-8.3,9.9-9,16.6c-0.2,1.9,0.6,4-1.1,5.6c-3-2.9-3.4-6.9-5-10.4C214.7,185.2,214.8,183,218,181.9z"/>
	<path class="st182" d="M137.2,157c1.9,4.3,2.1,9.4,6.2,12.7c0.3,0.2-0.2,1.5-0.4,2.3c-5.7-2-11.5-3.5-17.6-2.1
		c-2.5,0.4-5.2,1.1-5.9-2.6c0.2-0.4,0.6-0.7,1-0.9c2.5-0.8,5-0.4,6.6,0c-0.3-0.1-1.3-0.6-1.3-2.1c0.8-1.1,2-1.1,3.1-0.8
		c1.7,0.6,2.4-0.3,3-1.6c0.4-0.2,0.8-0.3,1.3-0.3c2.4,0.7,2.1,3.6,4.3,4.9c-0.2-3.1-2.4-5.6-2-8.7
		C135.9,157.1,136.3,156.6,137.2,157z"/>
	<path class="st82" d="M236.9,186c-3.8,1.1-2.9,4.1-2.8,6.8c-1.1,0.9-1.6-0.1-2.2-0.7c-2.5-0.5-6,1.3-6.8-3c0.4-0.8,0.7-1.5,1.1-2.3
		c0.7-1.2,1.6-2.1,2.6-3C232.9,179.6,234.5,180,236.9,186z"/>
	<path class="st183" d="M88.9,222.3c-0.3-0.7-0.6-1.5-0.9-2.2c3.3,0.3,5.1,2.8,7.3,4.8c3.4,3.2,6.9,6.3,11.9,6.3
		c-1.7,1.4-3.9,1-5.8,1.6c-4.1-1.7-8.3-3.2-11.3-6.7C90.3,224.6,89.6,223.4,88.9,222.3z"/>
	<path class="st184" d="M81.1,200.1c1.4-1.8,2,0,2.9,0.6c1.9,1.5,3.4,3.6,6.1,3.6c-0.6,2.2,1.3,6.1-2.2,6.1
		c-3.4,0.1-6.1-2.5-5.9-6.6C82,202.5,82.5,201.1,81.1,200.1z"/>
	<path class="st185" d="M158,167.2c0.3-0.7,0.6-1.3,0.9-2c5.4,1.3,10.8,2.1,16.3,1.2c2.1,1.1,4.5,0.8,6.6,1.8
		c-0.8,3.5-4.3,1.2-6,2.8c-4.3,0.4-8.2-1.5-12.4-1.8C161.4,169,159.5,168.7,158,167.2z"/>
	<path class="st186" d="M167.1,226.2c-0.7,6.1-3.9,7.9-7.5,9.1c-5.4,1.8-9.9,0.1-13.9-4.2C153.7,235.6,160.9,235.9,167.1,226.2z"/>
	<path class="st187" d="M146.8,166.1c-0.9-1.7-1.8-3.4-2.6-5.1c2.4-0.9-2-4.5,1.9-4.9c1.8,3.8,3.8,7.4,5.5,11.3c0.8,1.6,2,3,2.4,4.9
		c-0.1,1.5-0.3,2.9-1.9,0.8C150.2,170.7,148.5,168.4,146.8,166.1z"/>
	<path class="st188" d="M135.9,193c-0.6,0-1.1,0-1.7,0c-0.5-0.3-0.8-0.7-1-1.2c-0.6-3.2-0.8-6.5-2.2-9.6c-0.6-1.3-1.1-2.8,0.1-4.2
		c1.4,0.2,3-0.5,4,1.1C134.6,183.8,136.7,188.3,135.9,193z"/>
	<path class="st189" d="M80.1,200c0.3-0.1,0.5-0.1,0.8-0.1c-0.3,0.7-0.6,1.5-1,2.2c-2.7,4.5-2.4,5.6,2.3,7.6
		c2.8,1.2,5.4,2.5,3.8,6.4c-1.5-2.5-2.5-5-6.5-5.4c-3.1-0.3-3.3-4-2.3-6.8C77.8,202.5,78.5,200.8,80.1,200z"/>
	<path class="st190" d="M234.9,204c3.5-2,5.4-5.2,6.1-9.1c0-0.1,0.3-0.3,0.3-0.2c0.3,0.1,0.5,0.3,0.8,0.4c0.1,4-2.1,6.7-4.9,9.1
		c-3.1,2.6-6.2,5.2-9.3,7.8c0-0.5-0.1-1-0.1-1.4C228.6,206.6,232.1,205.7,234.9,204z"/>
	<path class="st177" d="M218,181.9c-1.6,1.7-1.9,3.8-2.2,6c-0.9,1.4-1.9,2.8-2.8,4.2c-0.9-3-1.4-6-0.9-9.2c2.8,1.2,1.4,3.1,1,4.7
		c2-2.3-0.5-7.1,4-8.5c0.6-0.1,1.5-0.4,1.7-0.2C219.6,180.1,218.5,180.9,218,181.9z"/>
	<path class="st191" d="M236.9,186c-1.4-1.6-2.8-3.2-4.3-4.8c-2.2,1.9-4.3,3.8-6.4,5.6c0.3-3.2,2.8-4.6,5-6.3
		c0.9-0.8,1.8-1.7,2.7-0.1c1.3,2.2,4.3,3.1,4.2,6.2C237.6,186.4,237.2,186.2,236.9,186z"/>
	<path class="st192" d="M153.9,172.2c-1.4-1-2.5-2.3-3-4c-0.2-2.3,0.8-3.4,3.2-3.3c0.3,0.3,0.7,0.7,1,1
		C153.3,167.8,156.1,170.5,153.9,172.2z"/>
	<path class="st193" d="M99,199c0.5,0.7,1,1.5,1.5,2.2c-1.5,1.1-3.1,1.6-5.7,1.7C96.4,201.2,93.7,196.4,99,199z"/>
	<path class="st32" d="M102.9,203.4c0.8,0.8,1.5,1.8,2.9,1.7c0.7,3.3-2.6,1.5-3.5,3.3C101.9,206.3,101.2,204.7,102.9,203.4z"/>
	<path class="st194" d="M109.1,211.5c1.9-1.5,4.1-1.5,3.5-3.3c-0.2-0.6-1.9-1.5-2.5-1.3C107.7,207.6,109.9,209.4,109.1,211.5z"/>
	<path class="st119" d="M92.8,200c-1.5-2.5-2.3-5.1-1.5-8c0-0.1,0.3-0.1,0.4-0.1c0.1,0,0.2,0.2,0.4,0.3
		C92.4,194.8,92.6,197.4,92.8,200z"/>
	<path class="st195" d="M179.9,273.8c-1.8,4.1-4.9,5-9,3.7c-0.9-0.3-2.2-0.7-2.9-0.3c-5.4,3.5-7.4-0.8-9.5-4.3c-1.3-2-2.6-3.9-4.7-5
		c1.5-2.7,2.7-3.6,4.9-0.2c3.7,5.6,4.1,5.6,8.1,0.8c2.6-3.1,4-3,5.9,0.4c0.7,1.2,2.1,2,3.2,3C177,273.1,178.5,273.3,179.9,273.8z"/>
	<path class="st196" d="M176.9,254.9c1.4-0.6,2.8-1.2,4.2-1.9c3.6,4.1,3.2,14.5-0.5,18.1c-1.4,1.3-2.4,0.1-3.5-0.1
		c-1.5-1.9-3.6-3.4-4.4-5.8c1.2-2.2,4.3,0.9,4.9-1.2C178.2,261.1,178.2,257.9,176.9,254.9z"/>
	<path class="st197" d="M188,258.1c-0.3-1-0.7-2-1-3c6.8,0.4,6,5.2,5.6,9.8C189.8,263.4,191.6,259,188,258.1z"/>
	<path class="st198" d="M234.9,204c-2.4,2.2-4.7,4.4-7.1,6.6c-1.3,0.3-2.8,1.8-3.7-0.5c-0.5-1.4,0.2-2.2,1.6-3.1
		c3.3-2,3.9-6.1,1.5-9.5c-1.9-2.6-0.9-3.4,1.7-3.7c1.1-0.3,2.1-0.6,3.1,0.2C231.3,197.9,230.8,201.6,234.9,204z"/>
	<path class="st199" d="M232,194.1c-1-0.1-2.1-0.2-3.1-0.2c1-0.5,1.9-1.1,2.9-1.6c0.7,0.2,1.5,0.4,2.2,0.7c1.4,1.1,2.8,2.1,4.4,3.3
		C235.5,197.1,234.3,193.9,232,194.1z"/>
	<path class="st200" d="M137.2,157c-0.4,0.3-0.8,0.6-1.1,0.9c-0.6,1.7-1.5,3.1-3,4.1c-0.3,0-0.5-0.1-0.8-0.1c-3-1.9-6.3-1.9-9.7-1.3
		c-4.1,0.8-1,4.5-2.5,6.3c-0.2,0-0.4,0-0.6,0.2c-3.8,3.8-11.3,6.9-16.2,3c0,0-0.3-0.2-0.3-0.2c-0.6-0.4-1.2-0.8-1.3-1.5
		c-0.8-4.1-2.8-6.6-7.4-5.8c-0.4,0.1-0.8-0.5-1.1-0.9c0.1-0.2,0.2-0.4,0.2-0.6c0.2-0.3,0.5-0.6,0.7-0.9c0.3-0.1,0.6-0.2,1-0.3
		c1.2-1.3,2.9-1.7,4.5-2.2c2.9,0.1,2.9-4.4,6-3.9c1.9,2.3,4.2,2,6.7,1c2.6-1,2.4-3.2,2.5-5.3c0.1-3.3-0.3-6.6,1.3-9.7
		c0.4-0.6,0.9-1.1,1.7-1.2c1.9,2.3,2.3,5.1,2.2,7.8c-0.1,5.7,1.8,7.6,8.1,7.7c0.3-0.3,0.7-0.6,1-0.9c0.8-0.4,1.7-0.5,2.7-0.6
		c0.5,0,0.9,0,1.4,0c0.9,0,1.8,0.1,2.7,0.3c0.4,0.2,0.8,0.5,1.1,0.8C137.1,155.1,137.1,156,137.2,157z"/>
	<path class="st114" d="M93.1,161.8c0.2,0,0.3,0,0.5,0c7.7-0.3,7.7-0.3,9.3,8.1c-2.3,0.5-4.1,3.7-6.9,1.1c0.4-2-1-3.4-1.9-4.9
		C93.3,164.9,91.9,163.6,93.1,161.8z"/>
	<path class="st201" d="M86.1,108c0.5,2.5-0.8,4.6-1.1,7c0.2,8-2.5,15.7-2,23.8c0.1,1.2,0.1,2.3-0.7,3.3c0.4,2.2,0.8,4.4,1.3,7.2
		c-4.8-4.3-2.9-9.4-3.3-14c0.7-8.1,0.8-16.4,3.8-24.2C84.7,110.1,85.4,109.1,86.1,108z"/>
	<path class="st202" d="M63.9,203.8c2.9,3,5.2,6.3,6.1,10.5C67.3,211.2,64.8,208,63.9,203.8z"/>
	<path class="st203" d="M72.2,215.9c3.2,0.3,6.7-0.2,8.9,3.2C77.9,218.5,74.7,218.2,72.2,215.9z"/>
	<path class="st204" d="M82.3,142c-0.3-9.1-0.3-18.2,2.7-27c2.9,5.2,0.6,10.4-0.4,15.5c-0.7,4-0.7,7.8,0.4,11.6
		C84.1,142.1,83.2,142,82.3,142z"/>
	<path class="st205" d="M77,211.4c-0.3,1.8-1.6,1.9-2.7,1.6c-2.2-0.6-3.7-2.2-4.1-4.4c-0.2-1.3,1-1.6,2-1.4
		C74.9,207.4,76,209.4,77,211.4z"/>
	<path class="st206" d="M68.3,200.6c-0.7-3.4,1.5-5.6,2.3-8.2c0.4-1.3,1.7-1.3,2.8-0.4c1.1,0.9,1.4,1.4,0,2.6
		C71.6,196.2,70.1,198.4,68.3,200.6z"/>
	<path class="st207" d="M78.1,196.9c0,0.3,0.1,0.6,0,1c-2.9-0.1-4.8,2.3-7.6,2.7C72.7,198.8,74.2,195.5,78.1,196.9z"/>
	<path class="st208" d="M96.2,85.4c1.2,0.2,3.2,0,3.5,0.7c0.8,1.4-1.1,2.2-2,2.9c-3.5,2.7-4.9,6.9-7.6,10.1
		C89.4,93.3,94.3,90,96.2,85.4z"/>
	<path class="st201" d="M89.1,100.7c0.7,3.2-0.6,5.6-3.1,7.4C85.9,105.2,87.3,102.9,89.1,100.7z"/>
	<path class="st160" d="M63.1,121.1c1.4-2.4,2.8-4.8,4.3-7.1c0,4.2-6.6,20.3-9.4,23.1C58.8,131.4,61.5,126.4,63.1,121.1z"/>
	<path class="st209" d="M84,83.1c-2.1-0.3-3,2.2-5,2c1.4-2.3,2.5-4.9,6-4.1C85,81.8,84.9,82.6,84,83.1z"/>
	<path class="st210" d="M176.9,254.9c3.6,0.2,2.2,2.8,2.2,4.7c-0.3,6.6-0.3,6.6-6.4,5.6c-0.9-1.4-3.9-1.6-2.4-4.4
		C171.8,258.1,172.4,254.3,176.9,254.9z"/>
	<path class="st83" d="M160,262.9c-1.8-1-2.9-2.5-3.8-4.8c4.5-0.4,8.9-0.8,13.4-1.3c-0.4,2.5-1.2,4.4-2.6,6
		C164.7,263.7,162.3,262.8,160,262.9z"/>
	<path class="st211" d="M160,262.9c2.3-1.5,4.7-1.5,7,0C164.7,266.8,162.3,265.1,160,262.9z"/>
	<path class="st212" d="M160.5,266.1c1.5,1.5,4.1-0.3,4.9,1.9c0.1,0.3-1,1.6-1.6,1.7C161.3,270.1,161.2,267.7,160.5,266.1z"/>
	<path class="st13" d="M232.8,131.2c-0.5,0.3-1,0.6-1.5,1c-0.2-3.8-3.6-7.2-1.1-11.3C231.7,124.1,232.3,127.6,232.8,131.2z"/>
	<path class="st213" d="M217,102.1c1.9,2.1,2.9,4.7,3.1,7.7c-1.3-2.3-2.6-4.5-3.9-6.8C216.4,102.6,216.7,102.4,217,102.1z"/>
	<path class="st118" d="M217.1,179c-2.2,2.6-1.6,6.3-3.6,9.2c-1-1.7,0.1-3.8-1.3-5.3c1.9-3,1.3-6.3,0.8-9.5
		c-2.5-4.3-0.5-9.3-2.3-13.7c-0.2-0.5-0.2-1.1-0.1-1.6c2.5-3.7,2.3-7.7,1-11.8c-1.3-4-3.3-7.9-3.4-12.3c0.7-4.1-1.1-7.8-2.1-11.6
		c-1.2-4.3-2.2-8.7-3.5-13c-0.6-1.8-1-3.6,0.4-5.2c0.9-3,2-5.9,4.3-8.2c2.2,3.1,2.8,6.8,4.3,10.2c-0.2,6.1,2.5,11.7,2.5,17.8
		c0,5.2,1.3,10.4,1.9,15.6c0.6,5.8-0.1,11.5,1.5,17.4C219.4,164.1,217.3,171.7,217.1,179z"/>
	<path class="st118" d="M212.8,106.1c1.7-1.2,1.8,0.6,2.3,1.3c3.3,4.9,6.6,9.9,9.8,14.8c1.4,3.7,2.9,7.3,4.3,11
		c-4.5-0.6-5.9-4.7-8.7-7.4c-1.7-2.4-3.8-4.6-4.3-7.6C215.1,114.2,214,110.1,212.8,106.1z"/>
	<path class="st214" d="M216.2,118.2c1.5,2.3,3.8,4.1,4.7,6.8c1.4,2.4,3.9,4.1,4,7.2c0.4,1.7,0.7,3.5,1.1,5.2
		c-3.7-1.8-6.3-4.6-8-8.3C216.3,125.6,215.4,122,216.2,118.2z"/>
	<path class="st145" d="M218.1,134.8c3.5,3.6,5.9,8.2,9.8,11.5c0.2,0.9,1.1,1.8,1.7,1.5c4.9-1.8,1.8,2.1,2.4,3.3
		c-4.3,0.2-8.5,0.4-11.2-4c0.4-0.3,0.7-0.5,1.1-0.8c1.6-3.3-1-4.1-3.1-5.3C217.2,139.2,218.2,136.9,218.1,134.8z"/>
	<path class="st162" d="M220.8,147.2c3.4,2.4,7.5,2.7,11.2,4c0,0.2,0,0.4,0,0.6c-4,3.1-7.9,2.6-12,0.1
		C219.2,150.2,217.4,148.3,220.8,147.2z"/>
	<path class="st215" d="M218.8,141.1c0.3-0.6,0-2.6,1.5-1c1.9,2,3.5,4.3,5.3,6.4c-1.4,1.2-2.5,0-3.8-0.1
		C218.7,145.9,219.1,143.3,218.8,141.1z"/>
	<path class="st216" d="M218,129.1c3,2.5,4.6,6.2,8,8.3c0.7,0.9,1.3,1.7,2,2.6c-3.5,0-4.5-3.3-6.8-5c-1-0.7-1.2-3.2-3.4-1.9
		C216.5,131.7,216.4,130.3,218,129.1z"/>
	<path class="st217" d="M220,154.1c1.8,0.3,4.3-0.2,4.1,3c-0.7,0.3-1.5,0.6-2.2,0.9C220.9,156.9,219.5,155.9,220,154.1z"/>
	<path class="st218" d="M224.9,132.2c-1.1-2.5-3.8-4.1-4-7.2c3.5,2,4.3,6.7,8.3,8.1c1.1,0.8,0.6,2,0.7,3
		C228.2,134.8,226.6,133.5,224.9,132.2z"/>
	<path class="st219" d="M209.6,122.5C209.6,122.4,209.6,122.4,209.6,122.5c-0.9-3.1-1.8-6.1-2.7-9.1c-0.4-0.9-0.8-1.8-1.2-2.7
		c-0.4-1-0.9-2.1-1.2-3.2c0-0.1-0.1-0.2-0.1-0.2c-0.8-1.3-1.3-2.6-1.8-4c-0.9-0.9-0.7-2.5-0.9-3.8c-0.1-0.3-0.1-0.6-0.2-1
		c-0.3,1.5-0.7,3-1.2,4.4c0,0.3,0.1,0.7,0.1,1c-0.5,4.4-1.3,8.8,0.8,13.1c1.4,0.8,1.9-0.2,2.5-1.3c0.2-0.3,0-0.8,0.5-0.8
		c0,0.2-0.1,0.4,0,0.6c2.2,6.5,3.2,13.5,6.2,19.7C210,130.9,209.8,126.7,209.6,122.5z"/>
	<path class="st112" d="M176.1,167.1c-5.9,1.2-11.9,2.4-17.2-1.9c-10.1-5.8-15.9-14.4-16.6-26.2c2.8,4.5,4,9.9,7.8,13.8
		c2.1,2.2,4.3,4.1,7.4,3c2.8-1,2.3-4,2.6-6.4c1-8.1,1.7-16.1,3.1-24.1c0.6-3.4-1.2-7,0.9-10.2c3,0.7,2.1,3.2,2.2,5.1
		c0.1,2.9-0.5,5.8,0.6,8.7c1.7,6.2,3.9,12.3,5.1,18.7c1.1,5.9,1,6.3-4.8,6.9c-0.8,0.1-1.7,0-2.6,0.9c1.6,2.2,4.1,2.3,6.4,2.5
		c4.1,0.4,6,3.2,7.3,6.6C178.9,166.1,178.7,167.8,176.1,167.1z"/>
	<path class="st220" d="M176.1,167.1c1.3-0.1,2.6-0.6,1.5-2.1c-1.8-2.2-1.7-6.5-6.1-6.1c-2.7,0.2-5.3-0.1-7.6-1.7
		c-0.9-0.6-2-1.4-1.5-2.8c0.4-1.1,1.5-1.1,2.5-1.3c2.4-0.4,5.5,1.2,7-1c1.3-1.8-1-4.2-1.3-6.4c-1-5.6-2.9-11.1-4.4-16.7
		c-0.6-2.1-1.4-4.3,1.7-5.3c0.8,0.4,1.1,1.1,1.2,1.9c-0.5,3.9,0.3,7.5,2,11c2.6,4.9,3.5,10.4,6,15.3c0.8,2.3,2.4,3.6,4.9,3.5
		c2.6,0.4,5.2,0.2,7.7,0.6c0.2,0,0.3,0.1,0.5,0.1c0-0.1,0-0.2-0.1-0.2c-1.1-0.4-1.9-1.3-2.9-2c-3.8-1.6-5.8-5.7-9.8-7
		c-3.6-3.4-5.2-7.9-6.7-12.5c0.2-0.5,0.6-0.7,1.1-0.8c2.9,0.7,2.8,3.7,4.2,5.6c1.6,2.6,3.5,5.1,6,6.9c6.2,3.3,12.1,7.7,19.9,8
		c0-2.4-1.1-4.5-1-6.8c0.2-2-0.5-4.3,1.9-5.5c2.1,1.3,2.2,3.6,2.4,5.6c0.4,4.5,2.1,8.1,5.8,10.7c0.1,0.2,0,0.5-0.1,0.7
		c-1.6,1.4-1.3,2.9-0.7,4.8c0.9,2.7,2.5,5.4,0.8,8.3c-0.6-0.3-1.3-0.7-1.9-1c-0.7-0.6-1.4-1.2-1.8-2.1c-1.6-2.5-2.2-5.5-3.2-8.2
		c-1-2.7-2.6-2.2-4.4-1c-0.9,0.3-1.9,0.4-2.9,0.4c-2.9-0.5-5.8-0.9-8.8-0.8c-2.4-0.1-3.5,0.7-2.2,3.2c1.1,2,2.8,3.8,1.6,6.3
		c-1.8-0.3-3.7-0.5-5.5-0.8C179.7,168.6,177.6,169.5,176.1,167.1z"/>
	<path class="st221" d="M203.5,146.4c0.7,3.1,1.3,6.2,2,9.5c-10.2-0.6-18.9-3.6-25.8-11.3c0.4,0,0.8,0,1.2,0.1
		c3.2,0.4,6.1,3,9.6,1.3c4.9-2.4,0.5-6.2,1.3-9.3c2.7-10.9,2.2-22.5,5.3-33.3c1.1-3.9-0.3-8.4,2.6-11.8c1.1,4.6-0.6,9.5,1.7,14
		c3.1,3.9,2,8.6,1.6,12.9C202,127.8,202.1,137.1,203.5,146.4z"/>
	<path class="st222" d="M127.9,153.9c0.4-13,1.9-25.8,5.3-38.3c1.2-4.6,3.2-9,4.9-13.4c0.8-2.1,2.7-2.5,4.6-1.9
		c2.1,0.6,1.2,2.3,1,3.8c-1.3,9-3.8,17.8-3.6,27c-2,1.2-3.1-0.3-4.3-1.5c-0.1-0.1-0.1-0.3-0.2-0.4c-0.4-0.3-0.4-0.1-0.4,0.4
		c-0.4,5.4-1.6,10.6-2.6,15.9c-2.9,2.2-1.3,6.2-3.3,8.7l0,0C128.6,154.5,128.2,154.5,127.9,153.9z"/>
	<path class="st223" d="M116.8,140.1c-1.1,3.5-0.5,7.1-0.8,10.7c-0.1,2,1.3,4.8-2.4,5.4c-3.3,0.5-6.7,2.7-8.8-2
		c-3.3-2.3-5-5.2-2.7-9.2c1.9,3.2,2.4,7.2,7,9.9c0-6.3,0-12.1,0-17.8c0.6-3.5,1.9-6.2,6.2-5.2C118.3,134.2,116.9,137.3,116.8,140.1z
		"/>
	<path class="st224" d="M168.1,126c-0.1-0.6-0.1-1.2-0.2-1.8c-1.9-1.4-2.1-3.5-2.4-5.7c-0.8-6.8-0.3-13.6,0.1-20.3
		c0.7-2.7,0.6-5.6,2.5-7.9c0.1-1.1-0.3-2.6,1.3-2.8c1.7-0.3,1.6,1.2,1.8,2.3c0.4,2.4,0.5,4.8,0.1,7.3c-2.4,13.3-1.7,26.4,3.9,38.9
		c0.5,1,0.5,2.2,0.8,3.3c-2-1.2-2.5-3.5-3.9-5.2C169.1,132.1,168.8,129,168.1,126z"/>
	<path class="st141" d="M100,159c-1.7,0.2-3.1,1.4-4.9,1c-0.1-6.4-1.2-12.7-2.3-19c-0.8-4.7-2.3-9.7,1.2-14.1c2-1.1-0.9-4.2,2-5
		c1.7,7.1,3.5,14.3,6.1,21.2c-1.3,0.7-2.4,0.1-2.8-1.1c-1.5-3.9-3.2-7.8-2.2-12.1c-0.7,3.4-0.8,3.7,0.6,7.4c2,5.7,2.4,11.6,3.4,17.5
		C101.2,156.4,101.2,157.8,100,159z"/>
	<path class="st225" d="M94.8,120.1c0.5-13.8,16.9-35.6,29.2-37.4c-15.8,7.7-21.3,23-28,37.4C95.6,120.4,95.2,120.4,94.8,120.1z"/>
	<path class="st208" d="M100,159c-0.9-6-1.7-12-2.8-18c-0.7-3.9-1.5-7.8-0.6-11.8c0.3,4,1.9,7.6,3.1,11.3c0.4,1.2,0.5,2.7,2.3,2.6
		c0.1,0.6,0.1,1.2,0.2,1.8c-0.7,3.5,1.5,6.2,2.7,9.2C103.7,156.2,103.2,159,100,159z"/>
	<path class="st226" d="M128,93c0.4-3.3,7.1-11.9,10-12.7c1.1-0.3,2.4-0.4,3.2,0.7c0.8,1.1-0.4,1.8-1,2.5
		c-3.9,4.5-7.4,9.3-10.1,14.6c-1,2.1-2.5,3-4.8,2.1c1.2-5.5,5.4-8.8,8.5-12.4C131.7,88.9,131,92.1,128,93z"/>
	<path class="st118" d="M127.9,153.9c0.4,0.1,0.8,0.2,1.3,0.2c-6.9,1.9-12.1-0.2-10.9-4.7c1-3.7-0.3-6.8-0.5-10.2
		c-0.6-2.9-1.2-5.8-2.2-8.6c-0.7-1.9-2-4.5,1.4-5.7c3.1,8,2.1,17,6.1,24.8C124.1,151.8,124.7,154.4,127.9,153.9z"/>
	<path class="st227" d="M166.2,97.2c0,5,0,10-0.1,14.9c-0.1,4.1,0.1,8.2,1.8,12c-2.3,1-1.8,3.1-1.9,4.9c-2.2-2.7-0.8-5.9-1.1-8.9
		c-0.2-1.7,0.4-3.6-0.9-5.2c-0.2-6.3,0.4-12.6,1.1-18.9C166.1,96,166.5,96.2,166.2,97.2z"/>
	<path class="st138" d="M136.1,129.1c1.3,0.6,2.2,2.1,3.9,2c0.7,1.7,1.3,3.4,2,5.1c-2.4,3-0.3,6.5-1.2,10c-1.1-1.2-1.5-2.7-1.8-4.1
		c-0.7-0.4-1.4-0.8-1.8-1.6C136.1,136.8,133.9,133.1,136.1,129.1z"/>
	<path class="st228" d="M128,93c2.6-2.4,4.3-5.6,7.7-7.3c-3.1,5.1-7.8,9-10.4,14.5c-2.1,2.3-2.7,5.4-4.1,8.1
		c-0.7-0.1-0.8-0.7-1.1-1.2C121.7,101.8,125.3,97.6,128,93z"/>
	<path class="st229" d="M117,125c-2.3,3.5,0.1,6.6,1,9.7c0.5,1.7,1.1,3-0.1,4.5c-0.3,0.3-0.6,0.6-0.9,0.8c-1.7-2.4,0-5.7-1.9-8.1
		c-1.8-1.8-2.3-3.8-1.2-6.1c0.2-1.4-0.1-3,1.1-4.1c1.4,0.3,0.3-2.3,2-1.8C116.9,121.7,116.9,123.4,117,125z"/>
	<path class="st230" d="M113.8,126c0.4,2,0.8,4.1,1.2,6.1c-2.8,0.7-4.9,2.2-5.8,5C109.1,132.7,109.1,128.4,113.8,126z"/>
	<path class="st231" d="M116.8,120.1c-0.3,0.7-0.5,1.4-0.8,2.1c-0.1,0.3-0.4,0.6-0.6,0.9c-0.2-0.4-0.4-0.8-0.6-1.3
		c0.9-5.2,3.1-10,5.3-14.7c0.4,0.4,0.7,0.8,1.1,1.2C119.7,112.2,118.3,116.1,116.8,120.1z"/>
	<path class="st232" d="M94.8,120.1c0.4,0,0.7,0,1.1,0c0,0.7,0,1.3,0,2c-1.6,1.7-0.3,4.1-1.2,6c0,0-0.3,0-0.4-0.1
		c-0.2-0.3-0.3-0.6-0.4-0.9C94.2,124.7,93.3,122.2,94.8,120.1z"/>
	<path class="st233" d="M166.2,97.2c-0.3-0.4-0.7-0.7-1-1.1c0.4-2.2,0.2-4.8,2.8-6C167.4,92.5,166.8,94.9,166.2,97.2z"/>
	<path class="st234" d="M79.1,85.1c-1.5,3.1-4.1,5.3-7,7C73.4,88.8,75.5,86.2,79.1,85.1z"/>
	<path class="st235" d="M116.8,177c3.1-2.5,6.7-2.1,8.7,0.5c2.3,3.1,1.9,7.9-0.4,10.7c-2.5,3.1-6.1,0-8.9-1.2
		c-3.9-1.8-2.8-4.9-1.2-7.8C115.4,178.2,115.9,177.4,116.8,177z"/>
	<path class="st236" d="M133.9,192.2c0,0.3,0,0.6,0.2,0.8c-0.4,8.4-3,12.5-9,14.2c-1.9,0.6-3.7,0.5-4.7-1.4
		c-1.1-2.2-0.3-4.1,1.5-5.6c1.9-1.1,4.1-1.8,4.9-4.2c1.1-1.3,1.1-3,2.3-4.3C131.2,189.3,132.7,189.4,133.9,192.2z"/>
	<path class="st237" d="M122.1,200.1c-1,3.3-2.5,6.8,3.1,7.1c-7.5,1.9-12.5-0.8-15.3-8.2c-0.4-1.8-1.1-3.8,2.1-3
		C114.5,199.4,118.3,199.8,122.1,200.1z"/>
	<path class="st238" d="M133.9,192.2c-1.2-1-2.3-2.7-3.7,0c-0.7,1.4-2.2,2.4-3.3,3.7c-0.4-5.8,1.6-11.4,1.2-17.2
		c-0.2-3.6,1.4-2.6,2.9-0.7C132,182.8,135.1,187.1,133.9,192.2z"/>
	<path class="st239" d="M112.1,196c-2.2-0.1-1.6,1.9-2.1,3c-3.8-6.6-2.1-12.9,1.1-19c1.3-2.2,2.2-5.4,5.9-3
		c-0.4,0.9-0.8,1.8-1.8,2.2c-0.6-0.7-1.4-0.5-1.5,0.1C112.7,184.8,108,190,112.1,196z"/>
	<path class="st240" d="M123.2,192.5c-1.9,2.8-4.4,4.2-7.6,3.7c-2.4-0.3-3-2.2-3.7-4.1c-0.9-2.5,0.4-3.6,2.6-2.9
		C117.5,190,120.5,190.6,123.2,192.5z"/>
	<path class="st241" d="M93.9,175.9c-4.1,0.9-3.4-2.1-4-4.4c1.6-0.2,1.9,1.4,3,1.7C93.3,174.1,93.6,175,93.9,175.9z"/>
	<path class="st242" d="M187.3,168.9c-1.1-2.2-2.1-4.4-3.3-6.6c-2.1-3.8-1.1-5.1,3.1-4.1c4.6,4.7,12.3,2.1,16.9,7.7
		c-1.1-4.2-6.4-2.8-7.1-6.8c1,0,2,0.1,3,0.1c1.8-0.4,3.6-0.8,4.8,1.2c1.1,2.8,2.2,5.7,3.3,8.5c-0.5,2.8-2.2,1.3-3.5,0.9
		c-3.2-1.1-5.9-3.4-9.5-3.1c-0.4,0.4-0.7,0.9-1.1,1.4C191.8,168.4,189.5,168.6,187.3,168.9z"/>
	<path class="st235" d="M198,187.1c-2.9-0.4-4.5-2.6-6.1-4.5c-2.6-3.1,0.7-4.6,2-6.5c2.7-0.1,6.6-1.2,7.8,1c1.5,2.7-1,5.8-2.5,8.5
		C198.9,186.1,198.4,186.6,198,187.1z"/>
	<path class="st243" d="M198,205.9c-9.2,0.2-13.2-4.2-10-11c0.6,0.1,1.2,0.2,1.9,0.2c2,1,4.1,1.9,6.2,2.7c1,0,2-0.1,3-0.1
		c0,0.2,0,0.4-0.1,0.5C198.8,200.8,198.2,203.3,198,205.9z"/>
	<path class="st244" d="M211.5,171.3c-0.9-5-1.3-10.3-3.2-14.9c-2-4.8-0.4-6.3,3.1-5.8c2.6,0.4,2.7,3,2.6,5.7
		c-0.1,5.7-0.1,11.3-0.1,17C213,172.7,212.3,172,211.5,171.3z"/>
	<path class="st245" d="M192,193.2c-3.7-0.1-5.8-4.1-4-7.3c0.4-0.7,1.1-1.1,1.5-0.7c2.1,2,6.1,2.5,5.4,6.7
		C193.9,192.4,193,192.8,192,193.2z"/>
	<path class="st246" d="M185.7,166.1c5.2-2.1,8.9,0.6,13.3,1.2c3,0.4,5.1,2.5,8.8,1.2c0.4,0.5,0.8,1.1,1.2,1.6
		c-4.5,1-8-0.4-11.6-1.5C193.7,167.5,189.1,167.7,185.7,166.1z"/>
	<path class="st177" d="M196,197.9c-2.6,0.4-4.5-0.9-6.2-2.7C192.5,194.7,194.4,195.9,196,197.9z"/>
	<path class="st247" d="M198,205.9c-1.8-2.8-1.3-5.3,0.9-7.6c3.6-1.2,5.3-4.5,7.5-7.3c1.7,1.4,2.6,3,2.7,5.1
		C207,203.1,203.8,205.9,198,205.9z"/>
	<path class="st248" d="M154.1,165c-1.5,0.7-2.5,1.8-3.2,3.3c-2.2-3.8-4.3-7.7-4.8-12.1C148.7,159,151.4,162,154.1,165z"/>
	<path class="st249" d="M138.3,141c0.2,0.4,0.4,0.7,0.6,1.1c-1.1,0.2-1.5,1.1-2,2c-1.8,3.3,1,6.6,0,9.9c-0.4-0.1-0.8-0.1-1.2-0.2
		c-3.8-3.9-1.9-8.5-1.7-12.9C135.6,138.7,136.9,141.1,138.3,141z"/>
	<path class="st250" d="M122.2,159.9c3.6-0.6,7.6-3.1,10,2.1c0.3,2.3,1.4,5.5-3,2.7c-1.2-0.8-2.5-0.5-3.8-0.6
		C122.2,164.4,121.4,162.7,122.2,159.9z"/>
	<path class="st251" d="M122.2,159.9c0.5,1.8,1,3.7,3.3,4.2c1.6,1.1,3.2,2.2,6,4c-4.6-1.1-8-1.2-11.5-1.1c-1.2-1.7-1.1-3.8-1.1-5.7
		C118.8,158.1,120.4,158.7,122.2,159.9z"/>
	<path class="st221" d="M133,162.1c-0.2-2.3,1.4-3.1,3-4.1c1.3,3.5,2.5,6.9,3.8,10.6C134.7,169,134.9,164.5,133,162.1z"/>
	<path class="st252" d="M138.3,141c-1.6,1.2-2.3-0.2-3.2-1.1c-1.7,1.4-0.9,3.3-1.2,5.1c-0.4,3,0.9,6.2-1,9c-0.4,0-0.8,0-1.2,0
		c-2.1-3-1.5-6,0-8.9c0.1-6.9,2.6-13.5,2.1-20.9c2.4,1.3,1.9,3.2,2.1,4.9C135.8,133.2,137.5,137.1,138.3,141z"/>
	<path class="st253" d="M108,162.1c0.5,0.1,0.9,0.2,1.4,0.3c-0.7-4.6,2.7-3.4,5-3.4c3.5,0.1,2.1,3,2.6,4.9c1.1,3.9-2.3,3-4.1,3.7
		c-0.3,0.1-0.6,0.2-0.9,0.3C110.5,166,107,165.6,108,162.1z"/>
	<path class="st254" d="M108,162.1c0.3,2.7,4.2,2.8,4,5.8c-0.8,0.1-1.6,0.2-2.4,0.4c-4.3,0.9-7.7-2.4-6.1-6.6
		C104.7,158,106.5,160.9,108,162.1z"/>
	<path class="st162" d="M133.1,154c-0.2-5.7-0.3-11.3,1.2-16.9c1.4,0.6,0.5,1.9,0.9,2.8c-0.1,4.7-0.8,9.3,0.7,13.9
		C134.9,153.9,134,154,133.1,154z"/>
	<path class="st118" d="M131.9,145.1c0,3,0,6,0,8.9c-0.9,0.1-1.9,0.1-2.8,0.2C129.6,151,127.2,147,131.9,145.1z"/>
	<path class="st255" d="M131.6,157c-2.9,1.4-5.8,1-8.7-0.3C125.7,156.1,128.6,155.5,131.6,157z"/>
	<path class="st256" d="M212.3,164.9c-2.4-0.3-3.9-2.2-4.4-6.6c-0.5-4-1.2-7.9-1.9-11.9c-2-3.3-1.7-7.6-1.8-11.6
		c-0.2-7.5-0.8-15-0.5-22.5c0-0.4,0-0.8,0.1-1.1c0.3-1.9,0.3-0.3,0.4,0.1c1.8,8.5,3.6,17,5.5,25.4c1.3,5.4,2.8,10.7,3.8,16.2
		C214,157,215.5,162,212.3,164.9z"/>
	<path class="st257" d="M207.4,143.9c0.1-1.6,0.2-3.2,0.3-4.7c-0.1-2.4-0.1-4.7,0-7.1c0-0.4,0.1-0.8,0.1-1.2
		c-0.3-4.2-1.1-8.3-0.9-12.4c-0.7-9.3-1.1-18.7-2.9-27.8c-3.1,1.5-3.2,3.4-3.7,5.2c0.8,9,1.1,18,0.6,27.2
		c-0.7,12.2-1.2,24.6,6.1,35.2C207,153.4,206.6,148.7,207.4,143.9z"/>
	<path class="st258" d="M197,159.1c2.9,2.6,9,1.7,8.6,8.1c-4.9-0.1-8.6-8.2-15-2.7c1.2-3.3-2.7-3.8-3.5-6.3
		C190.4,158,193.8,158,197,159.1z"/>
	<path class="st259" d="M170.7,134.2c2,4.3,4.6,8.1,7.3,11.9c1.4,1.5,2.1,3.3,1.9,5.4c-0.7,2-1.9,2.9-3.8,1.4
		c-2.9-5-3.8-10.7-5.8-15.9C169.3,135.9,168.9,134.8,170.7,134.2z"/>
	<path class="st260" d="M179,150.8c-0.3-1.6-0.6-3.1-1-4.7c4.1,1.1,6,5.4,9.8,7C184.9,156.5,181.3,155.6,179,150.8z"/>
	<path class="st261" d="M179,150.8c2.3,3.2,5.2,4.1,8.8,2.3c1.1,0.9,2.2,1.9,3.2,2.8c-3.3,1.3-6.7-0.7-10.1,0.2
		c-2.9,0.9-4.1-0.8-4.9-3.2C177.8,153.2,179.1,153,179,150.8z"/>
	<path class="st145" d="M170.7,134.2c-0.9,0.8-0.5,1.8-0.5,2.8c-2.1-3.4-3.9-6.8-2.1-11c1.9,2.4,2.9,5.3,3.9,8.1
		C171.5,134.1,171.1,134.2,170.7,134.2z"/>
	<path class="st262" d="M181,156.1c3.3-2.9,6.7,0.3,10.1-0.2c0.2,0,0.3,0.1,0.5,0.1c0.5,0.2,0.7,0.9,0.2,0.9
		C188.1,156.9,184.4,157.8,181,156.1z"/>
	<path class="st159" d="M164.8,154.9c2.3,0.1,4.7,0.2,7,0.3c0,0.5,0,1-0.1,1.5C169.3,157.7,166.9,157.5,164.8,154.9z"/>
	<path class="st263" d="M204.8,160.5c-1.5-0.8-3.4,0.1-4.8-1.2c0.1-1.3,0.6-2.2,2-2.1C204.1,157.3,204.5,158.8,204.8,160.5z"/>
	<path class="st242" d="M179.7,158.6c2.7,1.2,2.7,3.8,3.5,6C180.7,163.3,180.7,160.7,179.7,158.6z"/>
	<path class="st193" d="M212.4,200.2c-0.5,0.7-1,1.5-1.5,2.2c1.5,1.1,3.1,1.6,5.7,1.7C215,202.4,217.7,197.5,212.4,200.2z"/>
	<path class="st32" d="M208.6,205.6c-0.8,0.8-1.5,1.8-2.9,1.7c-0.7,3.3,2.6,1.5,3.5,3.3C209.6,208.5,210.3,206.9,208.6,205.6z"/>
	<path class="st194" d="M200.9,213.8c0.7-2.4,2.4-3.6,0.9-4.7c-0.5-0.4-2.4-0.1-2.8,0.4C197.6,211.5,200.4,211.6,200.9,213.8z"/>
</g>
</svg>
